<?xml version="1.0" standalone="no"?>
<!DOCTYPE svg PUBLIC "-//W3C//DTD SVG 1.1//EN" "http://www.w3.org/Graphics/SVG/1.1/DTD/svg11.dtd" >
<svg xmlns="http://www.w3.org/2000/svg" xmlns:xlink="http://www.w3.org/1999/xlink" version="1.1">
<metadata>
Created by FontForge 20150824 at Sun Jan 31 01:01:40 2016
 By Everything Fonts
Copyright (c) Microsoft Open Technologies, Inc.  All rights reserved.
</metadata>
<defs>
<font id="winjssymbols" horiz-adv-x="2048" >
  <font-face 
    font-family="winjssymbols"
    font-weight="400"
    font-stretch="normal"
    units-per-em="2048"
    panose-1="5 10 1 2 1 1 1 1 1 1"
    ascent="2048"
    descent="0"
    bbox="-2 -5 2048 2048"
    underline-thickness="119"
    underline-position="-355"
    unicode-range="U+000D-E700"
  />
<missing-glyph horiz-adv-x="1322" 
d="M166 0v1398h990v-1398h-990zM314 148h694v1102h-694v-1102z" />
    <glyph glyph-name=".notdef" horiz-adv-x="1322" 
d="M166 0v1398h990v-1398h-990zM314 148h694v1102h-694v-1102z" />
    <glyph glyph-name=".null" horiz-adv-x="0" 
 />
    <glyph glyph-name="uni000D" unicode="&#xd;" horiz-adv-x="0" 
 />
    <glyph glyph-name="space" unicode=" " horiz-adv-x="561" 
 />
    <glyph glyph-name="uniE018" unicode="&#xe018;" 
d="M1024 1155l-1024 -978v689l1024 1004l1024 -1004v-689z" />
    <glyph glyph-name="uniE019" unicode="&#xe019;" 
d="M2048 1869v-689l-1024 -1004l-1024 1004v689l1024 -978z" />
    <glyph glyph-name="uniE081" unicode="&#xe081;" 
d="M1981 1662l-1013 -1512h-34l-868 750l245 321l572 -493l783 1169z" />
    <glyph glyph-name="uniE082" unicode="&#xe082;" 
d="M772 1282l252 766l253 -766h771l-614 -507l237 -775l-647 460l-643 -460l233 775l-614 507h772z" />
    <glyph glyph-name="uniE094" unicode="&#xe094;" 
d="M142 0q-61 0 -101 41q-41 40 -41 101q0 17 1 23q6 65 52 113l489 485q25 26 59.5 41t73.5 15q19 0 37 -6l61 65q-75 92 -117.5 207.5t-42.5 245.5q0 148 56.5 279t153.5 228t228.5 153.5t279.5 56.5t279 -56.5t228 -153.5t153.5 -228t56.5 -279t-56.5 -279.5
t-153.5 -229.5t-228 -154t-279 -56q-130 0 -246 43t-207 122l-65 -68q4 -18 4 -37q0 -38 -13 -72t-40 -60l-486 -488q-27 -25 -62 -38.5t-74 -13.5zM1331 819q106 0 199.5 39.5t163 110.5t110 163t40.5 199q0 106 -40.5 199.5t-110 163t-163 110t-199.5 40.5
q-107 0 -199 -40.5t-163 -110t-111.5 -163t-40.5 -199.5q0 -107 40.5 -199t111.5 -163t163 -110.5t199 -39.5z" />
    <glyph glyph-name="uniE0AE" unicode="&#xe0ae;" 
d="M2048 1027v-7l-782 -835h-566l596 627h-1296v423h1296l-596 627h566z" />
    <glyph glyph-name="uniE0B8" unicode="&#xe0b8;" 
d="M2048 789h-2048v469h2048v-469z" />
    <glyph glyph-name="uniE0D5" unicode="&#xe0d5;" 
d="M782 1863h567l-595 -627h1294v-425h-1294l595 -627h-567l-782 836v7z" />
    <glyph glyph-name="uniE0E2" unicode="&#xe0e2;" 
d="M1877 2048l-1023 -1024l1023 -1024h-683l-1024 1024l1024 1024h683z" />
    <glyph glyph-name="uniE0E3" unicode="&#xe0e3;" 
d="M852 2048l1024 -1024l-1024 -1024h-683l1023 1024l-1023 1024h683z" />
    <glyph glyph-name="uniE0E4" unicode="&#xe0e4;" 
d="M0 853l1024 1024l1024 -1024v-683l-1024 1023l-1024 -1023v683z" />
    <glyph glyph-name="uniE0E5" unicode="&#xe0e5;" 
d="M0 1876l1024 -1023l1024 1023v-683l-1024 -1024l-1024 1024v683z" />
    <glyph glyph-name="uniE0E7" unicode="&#xe0e7;" 
d="M2048 1707l-1082 -1620h-35l-931 804l262 344l613 -529l835 1254z" />
    <glyph glyph-name="uniE100" unicode="&#xe100;" 
d="M1992 252l-1291 772l1291 773v-1545zM56 1920q0 26 11 49t29 40.5t41.5 28t49.5 10.5h128q26 0 49.5 -10.5t41.5 -28t28 -40.5t10 -49v-1792q0 -26 -10 -49t-28 -40.5t-41.5 -28t-49.5 -10.5h-128q-26 0 -49.5 10.5t-41.5 28t-29 40.5t-11 49v1792z" />
    <glyph glyph-name="uniE101" unicode="&#xe101;" 
d="M56 1797l1291 -773l-1291 -772v1545zM1992 128q0 -26 -11 -49t-29 -40.5t-41.5 -28t-49.5 -10.5h-128q-26 0 -49.5 10.5t-41.5 28t-28 40.5t-10 49v1792q0 26 10 49t28 40.5t41.5 28t49.5 10.5h128q26 0 49.5 -10.5t41.5 -28t29 -40.5t11 -49v-1792z" />
    <glyph glyph-name="uniE102" unicode="&#xe102;" 
d="M129 2048l1790 -1024l-1790 -1024v2048z" />
    <glyph glyph-name="uniE103" unicode="&#xe103;" 
d="M765 128q0 -25 -10 -49t-27.5 -41t-41.5 -27.5t-49 -10.5h-258q-29 0 -51 10.5t-39.5 27.5t-28 41t-10.5 49v1792q0 25 10.5 49t28 41t39.5 27.5t51 10.5h258q25 0 49 -10.5t41.5 -27.5t27.5 -41t10 -49v-1792zM1799 128q0 -25 -10.5 -49t-28 -41t-40 -27.5t-51.5 -10.5
h-257q-25 0 -49 10.5t-41.5 27.5t-27.5 41t-10 49v1792q0 25 10 49t27.5 41t41.5 27.5t49 10.5h257q29 0 51.5 -10.5t40 -27.5t28 -41t10.5 -49v-1792z" />
    <glyph glyph-name="uniE104" unicode="&#xe104;" 
d="M1968 1975q48 -42 64 -86t16 -80q0 -31 -8.5 -57t-17.5 -45q-13 -21 -28 -38q-7 -8 -20 -23t-26.5 -31t-26.5 -31t-21 -23q-20 -14 -43 -14t-44 16l-241 240q-16 18 -16 43q0 24 15 43q7 9 21 22.5t29.5 27t30 25.5t23.5 21q18 19 41 34q20 11 47 20t58 9
q32 0 69.5 -14.5t77.5 -58.5zM1709 1354l-1135 -1137l-344 344l1136 1136zM0 0l116 341l224 -235z" />
    <glyph glyph-name="uniE105" unicode="&#xe105;" 
d="M1932 2048q24 0 45 -8.5t37 -24.5t25 -37t9 -45v-1817q0 -24 -9 -45.5t-25 -37.5t-37 -24.5t-45 -8.5h-341v621q0 25 -18 42.5t-41 17.5h-1018q-26 0 -43.5 -17.5t-17.5 -42.5v-621h-338q-24 0 -45 8.5t-36.5 24.5t-24.5 37.5t-9 45.5v1817q0 48 33.5 81.5t81.5 33.5
h1817zM1704 1757q0 24 -17 41t-43 17h-1244q-25 0 -42.5 -17t-17.5 -41v-450q0 -25 17.5 -41.5t42.5 -16.5h1244q26 0 43 16.5t17 41.5v450zM1022 0h-341v341h341v-341z" />
    <glyph glyph-name="uniE106" unicode="&#xe106;" 
d="M2032 2036q0 -7 -30.5 -25.5t-85 -52t-131.5 -88.5t-174.5 -137.5t-211.5 -194t-243 -260.5q6 -9 21.5 -25.5t31 -35t29.5 -37t20 -26.5q102 -130 183 -258t140.5 -246t101.5 -221.5t66.5 -185t37 -139.5t12.5 -84q0 -16 -5 -17h-1q-8 0 -28.5 37t-60 103.5t-100 161
t-148.5 210t-204 250t-266 278.5l-8 -9q-12 -9 -24 -24t-27 -35.5t-28 -39.5q-108 -150 -184.5 -277.5t-125 -222.5t-72.5 -153.5t-33 -74.5q-10 -18 -35 -18q-10 0 -20 5q-5 3 -20 13l-37.5 25t-47.5 33t-50 33.5t-45.5 28.5t-32.5 21q-9 5 -15 14t-6 18q0 5 4 15
q19 42 65.5 122t119.5 187t177 237.5t243 280.5q-142 119 -261.5 211t-215 158.5t-163 110t-106.5 65.5q-10 5 -15.5 10.5t-5.5 14.5q0 10 9 22q4 7 24.5 31t46 57t56 67t56.5 60q8 6 14 11t17 5q10 0 18 -5q24 -12 93 -58.5t168.5 -123.5t218 -181t243.5 -230
q99 99 210 182.5t221 148.5t212.5 114t185.5 81.5t140 48.5t75 16q6 0 7 -1v-1z" />
    <glyph glyph-name="uniE107" unicode="&#xe107;" 
d="M1673 1507v-1400q-2 -32 -7 -53t-16.5 -32.5t-32 -16.5t-51.5 -5h-1084q-31 0 -52 5t-32.5 16.5t-16 32.5t-4.5 53v1400h1296zM808 1237q0 20 -6.5 31t-19 16t-28.5 6t-35 1h-39q-18 0 -34.5 -1t-28.5 -6t-19 -16t-7 -31v-966q0 -20 7 -31t19 -17t28.5 -7t34.5 -1h39
q19 0 35 1t28.5 7t19 17t6.5 31v966zM1132 1237q0 20 -7 31t-19 16t-27.5 6t-34.5 1h-40q-19 0 -34.5 -1t-28 -6t-19 -16t-6.5 -31v-966q0 -20 6.5 -31t19 -17t28 -7t34.5 -1h40q19 0 34.5 1t27.5 7t19 17t7 31v966zM1457 1237q0 20 -7 31t-18.5 16t-28 6t-33.5 1h-40
q-19 0 -35 -1t-28.5 -6t-19 -16t-6.5 -31v-966q0 -20 6.5 -31t19 -17t28.5 -7t35 -1h40q17 0 33.5 1t28 7t18.5 17t7 31v966zM1241 1940h-433v108h433v-108zM1780 1615h-1512v217h1512v-217z" />
    <glyph glyph-name="uniE108" unicode="&#xe108;" 
d="M0 825v397h2048v-397h-2048z" />
    <glyph glyph-name="uniE109" unicode="&#xe109;" 
d="M843 0v843h-843v361h843v844h361v-844h844v-361h-844v-843h-361z" />
    <glyph glyph-name="uniE10A" unicode="&#xe10a;" 
d="M0 304l720 720l-720 720l303 304l720 -720l721 720l304 -303l-721 -721l721 -721l-304 -303l-721 720l-720 -720z" />
    <glyph glyph-name="uniE10B" unicode="&#xe10b;" 
d="M11 1031q-11 15 -11 32q0 21 16 37l195 183q13 12 32 12q10 0 20 -4t16 -11l537 -580l933 1192q16 18 39 18q17 0 29 -11l213 -165q7 -5 12.5 -15t5.5 -18q0 -18 -10 -35l-1197 -1528z" />
    <glyph glyph-name="uniE10C" unicode="&#xe10c;" 
d="M1210 1024q0 -39 -14.5 -72.5t-40 -59t-59.5 -40t-73 -14.5t-72.5 14.5t-59 40t-40 59t-14.5 72.5t14.5 73t40 59.5t59 40t72.5 14.5t73 -14.5t59.5 -40t40 -59.5t14.5 -73zM2048 1024q0 -39 -14.5 -72.5t-40 -59t-59.5 -40t-73 -14.5q-38 0 -72 14.5t-59.5 40t-40 59
t-14.5 72.5t14.5 73t40 59.5t59.5 40t72 14.5q39 0 73 -14.5t59.5 -40t40 -59.5t14.5 -73zM371 1024q0 -39 -14.5 -72.5t-39.5 -59t-59 -40t-73 -14.5q-38 0 -72 14.5t-59 40t-39.5 59t-14.5 72.5t14.5 73t39.5 59.5t59 40t72 14.5q39 0 73 -14.5t59 -40t39.5 -59.5
t14.5 -73z" />
    <glyph glyph-name="uniE10D" unicode="&#xe10d;" 
d="M266 1858q43 42 97.5 76.5t116.5 60.5t135 39.5t152 13.5q78 0 161 -10.5t167.5 -42t168.5 -87t164 -143.5l230 -238l368 360v-950h-965l369 371l-236 230q-54 54 -109 90.5t-109 59.5t-107 32.5t-102 9.5q-47 0 -90 -8t-79 -21t-61.5 -30.5t-44.5 -36.5
q-79 -77 -116.5 -160.5t-37.5 -176.5q0 -123 66 -253.5t193 -262.5q32 -33 74 -73.5t88.5 -87.5t95 -92t95.5 -90q106 -102 223 -212l-223 -226q-118 110 -226 212q-46 46 -95 94.5t-92 94.5t-85 84t-74 71q-101 99 -169 195.5t-109.5 188.5t-59.5 180.5t-18 172.5
q0 87 18.5 164t51 150t77.5 136t97 115z" />
    <glyph glyph-name="uniE10E" unicode="&#xe10e;" 
d="M1782 1858q52 -52 97 -115t77.5 -136t51 -150t18.5 -164q0 -84 -18 -172.5t-59.5 -180.5t-109.5 -188.5t-169 -195.5q-32 -33 -74 -71t-85 -84t-92 -94.5t-95 -94.5q-108 -102 -226 -212l-223 226q117 110 223 212q47 45 95.5 90t95 92t88.5 87.5t74 73.5
q127 132 193 262.5t66 253.5q0 93 -37.5 176.5t-116.5 160.5q-19 19 -44.5 36.5t-61.5 30.5t-79 21t-90 8q-49 0 -102 -9.5t-107 -32.5t-109 -59.5t-109 -90.5l-236 -230l369 -371h-965v950l368 -360l230 238q80 88 164 143.5t168.5 87t167.5 42t161 10.5q79 0 152 -13.5
t135 -39.5t116.5 -60.5t97.5 -76.5z" />
    <glyph glyph-name="uniE10F" unicode="&#xe10f;" 
d="M2048 982h-286v-921h-553v460h-369v-460h-554v921h-286l1024 1019zM748 982h-276v-369h276v369zM1577 982h-276v-369h276v369z" />
    <glyph glyph-name="uniE110" unicode="&#xe110;" 
d="M1221 0h-393v1372l-589 -588v491l785 773l785 -773v-491l-588 588v-1372z" />
    <glyph glyph-name="uniE111" unicode="&#xe111;" 
d="M0 827v393h1372l-588 589h491l773 -785l-773 -785h-491l588 588h-1372z" />
    <glyph glyph-name="uniE112" unicode="&#xe112;" 
d="M676 827l588 -588h-491l-773 785l773 785h491l-588 -589h1372v-393h-1372z" />
    <glyph glyph-name="uniE113" unicode="&#xe113;" 
d="M1024 1978l243 -728h781l-635 -466l240 -732l-626 450l-620 -450l235 728l-642 470h783z" />
    <glyph glyph-name="uniE114" unicode="&#xe114;" 
d="M1226 1175q62 0 118 -23t97 -64t66.5 -97t25.5 -118q0 -67 -25.5 -123t-66.5 -97t-97 -64t-118 -23t-118 23t-97 64t-66.5 97t-25.5 123q0 62 25.5 118t66.5 97t97 64t118 23zM1946 1482q20 0 39 -8t33.5 -20.5t22 -32t7.5 -41.5v-1019q0 -22 -7.5 -40.5t-22 -31.5
t-33.5 -21.5t-39 -8.5h-1844q-20 0 -39 8.5t-33.5 21.5t-22 31.5t-7.5 40.5v1019q0 22 7.5 41.5t22 32t33.5 20.5t39 8h407q45 0 81.5 17t64 43.5t43.5 65t16 79.5q0 22 8.5 40.5t23 31.5t31.5 21.5t40 8.5h824q19 0 38 -8.5t33 -21.5t22 -31.5t8 -40.5q0 -41 15 -79.5
t44 -65t66 -43.5t79 -17zM1226 409q95 0 178 37.5t146 99t98.5 146.5t35.5 181q0 95 -35.5 178t-98.5 146t-146 98.5t-178 35.5t-178 -35.5t-146 -98.5t-98.5 -146t-35.5 -178q0 -96 35.5 -181t98.5 -146.5t146 -99t178 -37.5zM305 1073q21 0 41 8.5t33 23t20.5 34t7.5 36.5
q0 22 -7.5 41.5t-20.5 34t-33 21t-41 6.5q-20 0 -38.5 -6.5t-33 -21t-22.5 -34t-8 -41.5q0 -17 8 -36.5t22.5 -34t33 -23t38.5 -8.5zM509 1585h-204q0 22 8 41t22.5 31.5t33 21t37.5 8.5h205q0 -22 -8.5 -39.5t-20.5 -31.5t-31.5 -22.5t-41.5 -8.5z" />
    <glyph glyph-name="uniE115" unicode="&#xe115;" 
d="M1785 1006l-31 -175l232 -174l-171 -296l-262 119l-150 -119l26 -263l-320 -88l-88 236l-201 28l-175 -207l-297 179l122 234l-122 144l-260 -26l-88 346l263 88v180l-207 174l177 291l262 -114l119 114l-26 268l320 88l113 -236l181 -33l201 207l263 -174l-87 -234
l87 -149l294 25l88 -319zM538 1018q0 -98 37.5 -184.5t101 -150t150 -101t184.5 -37.5t183 37.5t150 101t101 150t36 184.5t-36 185t-101 150t-150 100t-183 37t-184.5 -37t-150 -100t-101 -150t-37.5 -185z" />
    <glyph glyph-name="uniE116" unicode="&#xe116;" 
d="M1936 1325q27 -12 45 -37t18 -57v-514q0 -31 -18 -56.5t-45 -38.5q-18 -8 -40 -8q-42 0 -71 32l-206 205q-15 16 -23.5 33.5t-8.5 38.5v102q0 22 8.5 39.5t23.5 32.5l206 206q28 31 71 31q20 0 40 -9zM1485 1231v-514q0 -42 -16 -79.5t-43.5 -65.5t-65 -44.5t-80.5 -16.5
h-367l339 -336q28 -33 28 -74q0 -20 -7 -38.5t-21 -34.5q-17 -14 -35.5 -21t-38.5 -7t-39 7t-34 21l-336 340l-340 -340q-31 -28 -73 -28q-43 0 -71 28q-16 17 -23.5 35.5t-7.5 37.5q0 40 31 74l336 336h-367q-45 0 -81.5 16.5t-63.5 43.5q-26 27 -43 66.5t-17 79.5v514
q1 41 17 78.5t43 66t64 45t81 16.5h1026q43 0 80.5 -16.5t65 -45t43.5 -66t16 -78.5zM407 1536q-51 0 -97.5 20t-82 54.5t-56 81t-20.5 99.5q0 54 20.5 101t56 81.5t82 54.5t97.5 20q54 0 101 -20t82 -54.5t55.5 -81.5t20.5 -101q0 -53 -20.5 -99.5t-55.5 -81t-82 -54.5
t-101 -20zM1127 1536q-55 0 -102 20t-81 54.5t-53 81t-19 99.5q0 54 19 101t53 81.5t81 54.5t102 20q52 0 98.5 -20t81.5 -54.5t55 -81.5t20 -101q1 -52 -19 -99t-55.5 -82t-82.5 -55.5t-98 -18.5z" />
    <glyph glyph-name="uniE117" unicode="&#xe117;" 
d="M1990 832q-24 -118 -71 -226t-113.5 -200t-152 -167.5t-183.5 -128.5t-207.5 -81.5t-224.5 -28.5q-102 0 -200 23t-187 66t-168.5 104.5t-144.5 138.5l-338 -337v837h838l-329 -329q99 -109 236 -167t293 -58q126 0 241 37.5t206.5 109.5t156 174.5t88.5 232.5h260z
M2048 2036v-825h-837l328 323q-99 114 -238 174.5t-299 60.5q-124 0 -238 -39t-207 -111.5t-156.5 -175.5t-89.5 -232h-260q24 117 71.5 225.5t115 201t152.5 168.5t182 130t206.5 83t223.5 29q105 0 204.5 -24t189.5 -69t170 -109t146 -140z" />
    <glyph glyph-name="uniE118" unicode="&#xe118;" 
d="M878 2048h291v-1042l417 457v-375l-562 -604l-563 604v375l417 -457v1042zM1545 295q15 0 23.5 -4t12.5 -10t4.5 -13t0.5 -14v-208q0 -9 -0.5 -17t-4.5 -14.5t-12.5 -10.5t-23.5 -4h-1043q-14 0 -27.5 14.5t-13.5 31.5v208q0 14 13.5 27.5t27.5 13.5h1043z" />
    <glyph glyph-name="uniE119" unicode="&#xe119;" 
d="M1931 1793q26 0 47.5 -8.5t38 -21t24 -28t7.5 -32.5v-1333q0 -54 -32.5 -85t-84.5 -31h-1837q-17 0 -34.5 9t-30.5 23.5t-21 35t-8 48.5v1333q0 17 8 32.5t21 28t30.5 21t34.5 8.5h1837zM225 1587l794 -610l794 610h-1588zM1843 459v903l-752 -564q-23 -17 -38.5 -20
t-33.5 -3q-17 0 -36.5 3t-37.5 20l-740 564v-903h1638z" />
    <glyph glyph-name="uniE11A" unicode="&#xe11a;" 
d="M1291 2048q102 0 198.5 -28t180 -78.5t153.5 -120.5t120 -153.5t77.5 -178t27.5 -193.5q0 -105 -29 -203.5t-79.5 -186.5t-122 -159.5t-155 -122.5t-179 -82t-192.5 -31q-77 0 -136 9.5t-106 23.5t-85 34.5t-74 44.5l-588 -582q-51 -41 -109 -41q-35 0 -67.5 12.5
t-61.5 38.5q-33 30 -48.5 67t-15.5 77q0 38 14.5 75.5t42.5 63.5l566 560q-63 100 -87.5 199.5t-24.5 202.5q0 104 32.5 202t85.5 181.5t126.5 151t159.5 117t182 75t194 25.5zM753 1296q0 -113 41 -211.5t113 -170.5t169.5 -113.5t214.5 -41.5q111 0 206.5 41.5
t163.5 113.5t106 170.5t38 211.5q0 108 -39 203.5t-107 163.5t-163 107t-205 39t-208 -39t-171 -107t-116 -163t-43 -204z" />
    <glyph glyph-name="uniE11B" unicode="&#xe11b;" 
d="M794 622q-6 18 -11 39.5t-8 48.5q-5 29 -7.5 54.5t-2.5 52.5q0 80 31 152q36 67 85 122q27 31 55.5 58t55.5 55q31 29 57.5 54.5t53.5 51.5q52 51 84 109q36 55 36 125q0 60 -27 106q-25 44 -68 76q-22 17 -46.5 26.5t-53.5 16.5q-29 8 -58.5 11.5t-63.5 3.5
q-209 0 -395 -179v313q115 64 234 97t239 33q115 0 213 -28q103 -30 176 -84q78 -57 119 -138q45 -83 45 -193q0 -102 -38 -185q-19 -43 -41 -79t-50 -72q-29 -32 -57.5 -63.5t-62.5 -55.5q-29 -27 -59.5 -52.5t-57.5 -52.5q-54 -54 -92 -110q-34 -58 -34 -127
q0 -60 15 -106q9 -23 15 -43t13 -37h-294zM959 0q-74 0 -127 54q-54 49 -54 125q0 36 13 68.5t40 54.5q54 56 128 56q69 0 122 -56q55 -49 55 -123q0 -76 -55 -126q-54 -53 -122 -53z" />
    <glyph glyph-name="uniE11C" unicode="&#xe11c;" 
d="M878 1042l-417 -457v375l563 604l562 -604v-375l-417 457v-1042h-291v1042zM502 1753q-14 0 -27.5 13.5t-13.5 27.5v208q0 17 13.5 31.5t27.5 14.5h1043q15 0 23.5 -4t12.5 -10.5t4.5 -14.5t0.5 -17v-208q0 -7 -0.5 -14t-4.5 -13t-12.5 -10t-23.5 -4h-1043z" />
    <glyph glyph-name="uniE11D" unicode="&#xe11d;" 
d="M628 1272q-19 21 -44.5 30.5t-53.5 9.5q-26 0 -57 -8.5t-49 -30.5q-13 22 -13 65q0 25 11 43.5t29 34t39 23.5t40 8q20 0 39.5 -8t36 -23.5t27.5 -34t11 -43.5q0 -24 -4.5 -40.5t-11.5 -25.5zM1610 1272q-20 21 -45.5 30.5t-49.5 9.5q-31 0 -61 -8.5t-49 -30.5
q-13 22 -13 65q0 25 11.5 43.5t28.5 34t38.5 23.5t44.5 8q16 0 35 -8t36.5 -23.5t27.5 -34t10 -43.5q0 -24 -3.5 -40.5t-10.5 -25.5zM1031 878q76 0 137 20t115 45t103 44t98 19q37 0 69 -17.5t59.5 -45.5t43.5 -67.5t16 -86.5q0 -66 -24.5 -128t-67.5 -116t-102 -100
t-131 -79.5t-152 -51.5t-164 -18q-135 0 -253.5 45t-206.5 118.5t-139.5 170.5t-51.5 203q0 85 40.5 129t106.5 44q57 0 115 -19t119.5 -44t127.5 -45t142 -20zM0 1023q0 147 37 278t103 244t159.5 205t206.5 157.5t244 103t274 37.5t274.5 -37.5t244 -103t206 -157.5
t159 -205t103 -244t37.5 -278q0 -145 -36.5 -275t-102 -242.5t-158.5 -205.5t-204.5 -159t-242.5 -103.5t-272 -37.5q-145 0 -277.5 37.5t-246 102.5t-207.5 158t-160.5 205t-103.5 243t-37 277zM115 1023q0 -130 33 -246t91.5 -214.5t143 -182t185 -141t218 -90.5
t245.5 -33q126 0 241 33t214.5 91t182.5 142t141 182.5t90 214.5t32 244q0 130 -33 246t-91.5 215.5t-142.5 183t-183.5 141.5t-215.5 90.5t-242 32.5t-242.5 -32.5t-216 -90.5t-183.5 -141.5t-142.5 -183t-91.5 -215.5t-33 -246z" />
    <glyph glyph-name="uniE11E" unicode="&#xe11e;" 
d="M1109 1621h512v-426h427v-768h-939v1194zM342 1621v-341h-342zM2048 1280h-341v341zM939 427h-939v768h426v426h513v-1194z" />
    <glyph glyph-name="uniE11F" unicode="&#xe11f;" 
d="M1843 2048q42 0 79 -16.5t65 -44.5t44.5 -65.5t16.5 -79.5v-1024q0 -42 -16.5 -79t-44.5 -65t-65 -44.5t-79 -16.5h-483l174 -613l-701 613h-628q-43 0 -80 16.5t-64.5 44.5t-44 65t-16.5 79v1024q0 42 16.5 79.5t44 65.5t64.5 44.5t80 16.5h1638zM1486 1331h-308v511
h-307v-511h-306l459 -513z" />
    <glyph glyph-name="uniE120" unicode="&#xe120;" 
d="M559 513h-464q-40 0 -67.5 26t-27.5 67v1205q0 20 7.5 38t20.5 31t30 20.5t37 7.5h1671q20 0 37.5 -7.5t30.5 -20.5t20.5 -31t7.5 -38v-741l-186 179v262l-685 -514q-14 -11 -29 -15.5t-32 -4.5q-29 0 -56 21l-687 525v-826h372v-184zM1632 697l-373 373h321l468 -466
l-466 -465h-321l371 374h-887v184h887zM930 1162l717 558h-1442z" />
    <glyph glyph-name="uniE121" unicode="&#xe121;" 
d="M1023 2048q142 0 273.5 -37.5t244 -103.5t206.5 -160.5t160 -207t103.5 -243.5t37.5 -272q0 -142 -37.5 -273t-103.5 -243.5t-160 -206.5t-206.5 -160t-244 -103.5t-273.5 -37.5t-273 37.5t-243 103.5t-206 160t-160 206.5t-103.5 243.5t-37.5 273q0 141 37.5 272
t103.5 243.5t160 207t206 160.5t243.5 103.5t272.5 37.5zM1023 206q113 0 217.5 29.5t195.5 83.5t165.5 128t128.5 164.5t83.5 195.5t29.5 217q0 169 -65 318.5t-175.5 260t-260 175.5t-319.5 65q-112 0 -216.5 -29t-195.5 -83.5t-165 -129t-128.5 -165.5t-83.5 -195.5
t-29 -216.5q0 -113 29 -217.5t83.5 -195t128.5 -164.5t165 -128t195.5 -83.5t216.5 -29.5zM1543 874q22 -12 33.5 -31.5t11.5 -42.5q0 -30 -15 -55q-15 -29 -36.5 -46t-47.5 -17q-16 0 -36 10l-484 241q-16 8 -27.5 23t-16.5 33q-4 11 -4 25v537q0 39 30 62.5t73 23.5
q42 0 72 -23.5t30 -62.5v-467z" />
    <glyph glyph-name="uniE122" unicode="&#xe122;" 
d="M982 1446q0 15 5 26t13 20t22.5 14t26.5 5h914q13 -32 24.5 -59.5t20.5 -61.5h-904l486 -397l429 343q12 -35 18.5 -65t10.5 -68l-416 -348q-7 -7 -19 -10t-23 -3q-9 0 -18 2.5t-17 10.5l-451 383v-580h899q-10 -34 -22.5 -61.5t-26.5 -59.5h-905q-12 0 -26.5 5t-22.5 14
t-13 20t-5 26v844zM777 658h-340q-16 0 -29 5t-23 13t-15.5 20.5t-5.5 23.5q0 12 5.5 23.5t15.5 19.5t23 13t29 5h340q14 0 27.5 -5t24 -13t16 -19.5t5.5 -23.5q0 -11 -5.5 -23.5t-16 -20.5t-24 -13t-27.5 -5zM596 1267h-520q-16 0 -30.5 5t-24 12.5t-15.5 20t-6 24.5
q0 11 6 23t15.5 20t24 13t30.5 5h520q16 0 29 -5t23 -13t17 -20t7 -23q0 -12 -7 -24.5t-17 -20t-23 -12.5t-29 -5zM672 963h-415q-16 0 -29.5 5t-23 13t-16 20t-6.5 23t6.5 23t16 20t23 13t29.5 5h415q13 0 25.5 -5t23.5 -13t16.5 -20t5.5 -23t-5.5 -23t-16.5 -20t-23.5 -13
t-25.5 -5z" />
    <glyph glyph-name="uniE123" unicode="&#xe123;" 
d="M1480 227h227v-227h-227v227zM0 1708h226v-228h-226v228zM1707 569h341v-228h-1708v1707h227v-340h979l308 308l162 -162l-309 -307v-978zM567 1480v-750l751 750h-751zM1480 569v750l-751 -750h751z" />
    <glyph glyph-name="uniE124" unicode="&#xe124;" 
d="M510 1586h-204q0 22 8 41t21.5 32t32.5 21.5t38 8.5h205q0 -23 -8.5 -40.5t-21 -31.5t-32 -22.5t-39.5 -8.5zM1945 1484q20 0 39.5 -8.5t34 -21t22 -32t7.5 -41.5v-1020q0 -22 -7.5 -39.5t-22 -31t-34 -22t-39.5 -8.5h-1842q-20 0 -39.5 8.5t-34 22t-22 31t-7.5 39.5
v1020q0 22 7.5 41.5t22 32t34 21t39.5 8.5h407q43 0 80 17t65 43t44 64.5t16 80.5q0 22 7.5 39.5t22 31t32 22t40.5 8.5h818q19 0 38.5 -8.5t32.5 -22t21 -31t8 -39.5q0 -42 15.5 -80.5t44.5 -64.5t66.5 -43t83.5 -17zM306 1075q20 0 39.5 8.5t33 23t21 33t7.5 36.5
q0 22 -7.5 41.5t-21 34t-33 21.5t-39.5 7t-39 -7t-33.5 -21.5t-22.5 -34t-8 -41.5q0 -18 8 -36.5t22.5 -33t33.5 -23t39 -8.5zM817 771l204 204h-101q0 63 24.5 119t66 97.5t97 65t118.5 23.5q61 0 114 -21.5t97 -63.5l141 146q-66 66 -157.5 104.5t-194.5 38.5
q-106 0 -199.5 -40.5t-163.5 -109t-109 -162.5t-39 -197h-103zM1838 975l-203 201l-205 -201h102q0 -65 -24.5 -121.5t-66 -97t-97 -64t-118.5 -23.5q-62 0 -114.5 21.5t-96.5 61.5l-141 -146q66 -66 156.5 -104t195.5 -38t198 39.5t162 109.5t109 163.5t40 198.5h103z" />
    <glyph glyph-name="uniE125" unicode="&#xe125;" 
d="M582 1121q-80 0 -150.5 31t-123 83.5t-83.5 123t-31 150.5t31 151t83.5 123.5t123 83t150.5 30.5t151 -30.5t123.5 -83t83 -123.5t30.5 -151t-30.5 -150.5t-83 -123t-123.5 -83.5t-151 -31zM1153 873q12 -20 12 -43q0 -15 -4.5 -29.5t-15.5 -27.5l-484 -679
q-13 -18 -34 -29t-45 -11q-23 0 -44 11t-35 29l-486 679q-17 26 -17 57q0 23 11 43q13 27 36 40.5t50 13.5h971q25 0 48.5 -13.5t36.5 -40.5zM1660 1413q-60 0 -113 23t-92.5 62.5t-62.5 92.5t-23 113t23 112.5t62.5 92t92.5 62.5t113 23t113.5 -23t93 -62.5t62.5 -92
t23 -112.5t-23 -113t-62.5 -92.5t-93 -62.5t-113.5 -23zM2038 1165q10 -20 10 -44q0 -15 -4.5 -30t-14.5 -29l-290 -388q-13 -18 -34 -28.5t-45 -10.5q-22 0 -43 10.5t-34 28.5l-291 388q-19 30 -19 60q0 23 10 43q11 24 35 39t51 15h583q28 0 51 -15t35 -39z" />
    <glyph glyph-name="uniE126" unicode="&#xe126;" 
d="M1704 1882h344v-1717h-344v1717zM1486 165h-1486v1717h1486v-115h-1373v-1487h1373v-115zM915 854h-572v340h572v344l571 -515l-571 -515v346z" />
    <glyph glyph-name="uniE127" unicode="&#xe127;" 
d="M344 165h-344v1717h344v-1717zM562 280h1373v1487h-1373v115h1486v-1717h-1486v115zM1133 508l-571 515l571 515v-344h572v-340h-572v-346z" />
    <glyph glyph-name="uniE128" unicode="&#xe128;" 
d="M1023 2048q72 0 140.5 -9t133.5 -28q66 -19 128 -45t112 -59q58 -34 110 -74t99 -87q47 -46 87.5 -98t73.5 -110q33 -50 58.5 -113t44.5 -129q38 -130 38 -273t-38 -273q-19 -65 -44 -127.5t-58 -112.5q-34 -58 -74.5 -110t-87.5 -98q-47 -47 -99 -87.5t-109 -74.5
q-51 -33 -113 -59t-128 -45q-65 -19 -133.5 -27.5t-140.5 -8.5q-73 0 -140.5 8.5t-132.5 27.5q-66 19 -128 45t-112 59q-58 34 -110 74.5t-98 87.5q-47 46 -87 98t-74 110q-33 50 -59 112.5t-45 127.5t-28 132.5t-9 140.5q0 72 9 140t28 133q19 66 45 129t60 113
q67 116 161 209q93 94 208 161q50 33 111.5 58.5t127.5 44.5q65 19 132.5 28t140.5 9zM212 1090q-17 6 -32 15t-31 18q-14 9 -29 21q-4 -29 -6 -60t-2 -61q0 -64 8 -124t24 -119t39.5 -113t54.5 -106q58 -93 143 -178q43 -43 89 -77.5t90 -65.5l15 -7.5t16 -8.5q1 5 1.5 9.5
t1.5 8.5q6 24 11.5 46.5t9.5 43.5q4 18 6 36.5t2 42.5t-3.5 48.5t-7.5 49.5q-11 43 -31 75q-5 11 -10 20t-12 18q-6 9 -12 19.5t-12 20.5q-6 9 -9 19t-3 21q-5 10 -6.5 19.5t-1.5 19.5v12t2 11q1 5 3.5 10.5t2.5 12.5q-1 0 -4 1q-2 0 -6 6q7 16 12 32q5 8 10 15t10 12
q5 6 9 12t6 12q7 13 7 28q0 18 -11 43q5 -3 11 -3q1 0 9 -2l4 8q2 5 4.5 10.5t6.5 10.5q3 9 12 17q7 6 24 9q16 7 39 10q5 1 9 1t8 1l15 1q11 0 20.5 -1.5t19.5 -3.5q11 -3 18 -5.5t15 -3.5q10 -3 17.5 -7t14.5 -9l3 -1.5t3 -2.5q2 -3 2 -4.5t2 -3.5q4 -3 9 -3t5 -6v-1
l-1 -2v-1q0 -1 -0.5 -2t-0.5 -2q8 -5 15 -7q9 -2 11 -4q2 -1 4 -3t5 -4l5.5 -5.5t8.5 -7.5q11 0 11 -3q2 -4 13 -12l3 -3h2q9 0 20.5 -1.5t25.5 -8.5q16 -5 33 -13.5t34 -17.5q19 -10 37 -21t38 -23q19 -12 36 -24.5t33 -26.5q16 -12 28 -24t23 -25q21 -25 21 -45
q0 -12 -9.5 -20t-26.5 -16q1 -4 1 -13v-11q0 -46 -15 -70q-14 -20 -39 -34q-20 -15 -51 -28q-32 -11 -56 -26v-11q0 -8 -2.5 -16.5t-7.5 -19.5q-7 -12 -13.5 -23t-14.5 -20q-16 -18 -38 -34q-21 -12 -38 -12q-10 0 -22 6q-10 7 -20 25v-10h-5q6 -5 8 -11t2 -13
q0 -8 -1.5 -17.5t-6.5 -17.5q-3 -8 -7.5 -17.5t-9.5 -20.5q-5 -9 -10 -19t-12 -22q-6 -10 -13 -20t-14 -21q-2 -4 -5 -8.5t-7 -8.5q54 -14 110 -20.5t114 -6.5q128 0 245 31q115 32 219 92q43 32 89 66t89 77q69 71 120 144q-6 12 -10.5 23.5t-11.5 22.5q-10 33 -17 59
q-3 16 -3 32q0 15 2.5 32t7.5 33q5 17 6 33t1 33q0 5 -1.5 12t-6.5 17q-6 11 -11.5 20t-12.5 19q-5 10 -10 20.5t-10 18.5q-8 17 -8 23q0 10 3 24q2 6 2.5 14.5t1.5 18.5q2 8 2 14q0 5 -2 10.5t-4 6.5q-9 6 -23 6q-13 0 -22.5 2t-19.5 6q-7 4 -16.5 9.5t-23.5 11.5q6 0 6 5
q-26 -6 -51 -19q-26 -12 -47 -12q-6 0 -10 1q-2 0 -3.5 0.5t-3.5 0.5q0 4 2 6l1 2l-13 -6.5t-15 -5.5q-9 -3 -17.5 -4t-15.5 -1q-21 0 -42 8q-8 5 -19 11t-23 14q-5 5 -10.5 10t-10.5 9q-11 12 -11 18q0 3 2 3q-5 10 -18 24q-10 13 -17 13q-11 4 -11 9q0 3 11 8
q-6 0 -12.5 1t-11.5 2q-9 9 -9 31q3 -5 9 -5q3 0 5.5 1.5t7.5 3.5q-15 0 -21 8q-5 5 -8 7t-7 3q5 6 9 14.5t9 16.5q6 17 6 35q0 19 -6 32q-6 9 -6 21q0 11 4 23t11 26q15 27 32 42q4 7 19 15q7 5 13 9t13 8q4 4 11 8.5t13 9.5q10 13 10 21l-3 11q0 5 7 16q4 5 5.5 9.5
t6.5 9.5q4 3 7.5 3.5t7.5 3.5q10 9 14 12q6 7 10 12.5t8 7.5q5 3 15 3q4 0 10 -1t14 -3q7 -3 13 -4t12 -1q12 0 24 3q0 2 6 4.5t13 6.5q16 3 29 9q6 2 11.5 3t11.5 3q5 0 15 0.5t24 1.5q15 2 27.5 3t24.5 1h10.5t9.5 2q8 4 12 4v-9q0 -6 -3 -7h8q8 0 8 -2q0 -6 -7 -13
q-3 -10 -3 -20q0 -14 12 -19q12 -8 27 -15q9 -5 16.5 -8.5t17.5 -5.5q4 -2 10 -4q-31 42 -64.5 87.5t-75.5 87.5q-37 37 -79 69q-4 -1 -5.5 -1.5t-3.5 -1.5q-5 -2 -11.5 -5t-16.5 -6q-8 -5 -16 -8.5t-10 -8.5q-7 -8 -14 -13t-13 -13q-11 -13 -11 -27q0 -5 1.5 -10t3.5 -10
q-19 -30 -43 -37q-11 -5 -23 -6.5t-25 -1.5h-64q-6 -2 -12.5 -3t-13.5 -5q0 25 -1 28q0 5 -7 5q-5 0 -8 2q1 4 3 10t5 14q6 21 6 34q0 10 -5 17q-5 9 -11 9q3 7 31 10q13 3 28.5 5.5t32.5 6.5q29 6 55 14q27 8 27 18q0 3 -6 7q-12 26 -36 37q-26 11 -50 11v11q7 3 17 3h20
q21 0 21 8q0 3 -2 12q-78 38 -160 62q-117 31 -245 31q-64 0 -124 -8t-120 -23q-116 -32 -219 -94q-94 -59 -179 -143l-16 -16q7 3 12.5 5t7.5 5q8 6 21 6q15 0 38 -10q11 -5 18 -14t12 -19q7 -18 26 -31q20 -12 25 -12q16 0 16 12v6t-1 5l-1 12q0 5 4 10q1 3 5.5 5.5
t10.5 5.5q13 12 13 27q0 14 -7 26q-4 8 -7 16t-7 18q-4 7 -4 13q0 9 10 14q4 2 9.5 3t11.5 1l53 -3q16 -5 26 -15q6 -7 10 -12t9 -12q5 -4 8.5 -10.5t7.5 -12.5q9 -11 12 -11h1q4 0 7 5q0 2 1.5 4t3.5 4q1 5 7 11q5 5 15 5q13 0 29 -7q10 -4 22 -9.5t25 -13.5
q17 -9 27 -17.5t17 -16.5q6 -8 10 -14t4 -12q0 -10 -9 -19q-5 -5 -10 -9t-13 -6q-11 -7 -30 -10q-8 -2 -15.5 -3.5t-15.5 -2.5q-14 -2 -24.5 -5.5t-21.5 -8.5q-10 -6 -14 -10.5t-4 -9.5q0 -8 33 -8h12h7q6 -1 6 -3q0 -6 -7 -9q-2 -2 -5.5 -4.5t-6.5 -4.5q-9 -7 -19 -11
q-12 -2 -20.5 -4t-15.5 -6q-17 -4 -17 -19q0 -4 0.5 -8.5t3.5 -9.5q-5 0 -11.5 -1t-11.5 -3q-7 -2 -13 -3.5t-14 -4.5q-11 -3 -24 -12q-13 -6 -19 -12q0 -6 2 -10v-9q0 -4 -2 -10q-3 -3 -7 -3v12q2 6 3 7q0 1 0.5 2t0.5 3t0.5 5.5t0.5 7.5l-1 -3q-3 0 -3 4l-6 -6q0 -3 -2 -3
q-3 0 -4 3q0 -6 2 -10l4 -10q-1 1 -7 5q-5 3 -7 3q2 -2 2 -5l-2 -2l5 -5l2 -4l2 -1q0 -3 -1 -5q6 -1 8 -6q3 -3 3 -7q2 -2 3 -4q0 -2 4 -2q-3 -5 -7 -6.5t-6 -1.5h-5q-1 1 -5 1v-8q1 0 1.5 0.5t2.5 0.5t2 -1h5l-2 -2q-13 -4 -22.5 -8t-17.5 -7q-8 -4 -12.5 -8.5t-4.5 -7.5
q-6 -8 -7 -20q-1 -5 -2 -11t-1 -14q0 -4 0.5 -8t1.5 -9l1 -16l-1 -18q0 -14 -2 -17q-16 44 -45 61q-15 11 -31.5 15t-35.5 4q-11 0 -21.5 -0.5t-21.5 -3.5q1 -1 4 -1l5 1q2 -1 5 -1h2l1 1q0 -2 -1 -4q-1 -1 -1 -4q2 -3 6 -7q-14 4 -28.5 5.5t-25.5 1.5q-12 0 -24.5 -1.5
t-23.5 -5.5q-22 -8 -36 -23q-1 -7 -1.5 -13.5t-1.5 -12.5q-1 -5 -1.5 -10t-0.5 -9q0 -45 17 -59q19 -15 46 -15q26 0 57 8q14 5 29 10.5t32 10.5v-2q-2 -6 -4.5 -12t-6.5 -9v-1q-2 -4 -3 -6.5t-4 -4.5q-1 -2 -2.5 -3.5t-3.5 -4.5l-1 -4q-1 -1 -1 -4.5t-1 -7.5t-1.5 -8
t-2.5 -9q-1 -4 -6 -10l3 -2l9 -4q4 2 8 3t7 3q3 4 10 4q24 0 40 -14q7 -5 13 -12.5t11 -19.5q7 -8 14.5 -16.5t15.5 -19.5t16.5 -18t25.5 -13q-10 -4 -18 -4q-2 0 -5.5 -2t-6.5 -9v-3l-12 6t-11 5t-9 3.5t-9 3.5q-3 1 -7 3.5t-8 5.5q-11 5 -23 19l2 -7q2 -1 2 -4l-1 -2v-1
l-2 1q-6 18 -19 34l-2 1q-12 18 -15 27h-31q-8 1 -15 2.5t-14 3.5q-19 10 -37.5 16t-36.5 14q-16 6 -32.5 14t-30.5 14zM551 1152q28 -10 66 -26q-9 -2 -16.5 -3t-15.5 -1q-11 0 -19 2l-16 4q-8 3 -14.5 6.5t-11.5 6.5q-1 3 -5 5.5t-10 5.5q-5 2 -10.5 4t-11.5 2
q-15 0 -33 -13q0 4 -8 4q5 4 23 10q9 3 17 5t16 2q21 0 49 -14zM631 1121q21 0 37 -3q11 -2 20.5 -4.5t18.5 -6.5q-15 -7 -29.5 -9.5t-27.5 -2.5q-22 0 -37 3q3 4 5 6t3 4l5 3q2 2 2 3q1 1 1 2.5t2 4.5z" />
    <glyph glyph-name="uniE129" unicode="&#xe129;" 
d="M1789 1353l-1225 -439v1011zM463 2048v-2048h-205v2048h205z" />
    <glyph glyph-name="uniE12A" unicode="&#xe12a;" 
d="M2048 1721v-1394h-2048v1394h2048zM928 697h-742v-185h742v185zM928 1072h-742v-189h742v189zM1855 1072h-649v-560h649v560zM1956 1628h-1863v-370h1863v370z" />
    <glyph glyph-name="uniE12B" unicode="&#xe12b;" 
d="M1023 2048q144 0 275 -37t243.5 -103t206.5 -160t160 -206.5t103 -243.5t37 -275q0 -143 -37 -273.5t-103 -243t-160 -206.5t-206.5 -160t-243.5 -103t-275 -37q-143 0 -273.5 37t-243 103t-206.5 160t-160 206.5t-103 243t-37 273.5q0 144 37 275t103 243.5t160 206.5
t206.5 160t243 103t273.5 37zM710 1397q-23 -77 -33 -169.5t-10 -204.5h715q-1 111 -14 204t-39 170h-619zM669 930q5 -114 22 -205.5t46 -167.5h561q34 77 54 168.5t27 204.5h-710zM1458 1397q23 -86 35 -178.5t13 -195.5h355q0 102 -21.5 196t-65.5 178h-316zM275 1397
q-44 -84 -66 -178t-22 -196h355q0 207 41 374h-308zM1014 1861q-41 -32 -80.5 -71.5t-75 -86.5t-66 -101t-55.5 -119h561q-28 64 -60.5 118t-68 100t-72.5 86.5t-74 73.5h-9zM1503 930q-6 -110 -24.5 -202.5t-47.5 -170.5h290q53 83 89 176.5t47 196.5h-354zM192 930
q11 -103 46.5 -196.5t88.5 -176.5h277q-51 163 -60 373h-352zM1036 187q58 61 115.5 130t107.5 158h-484q44 -93 102 -162.5t121 -125.5h38zM1359 1639q41 -78 71 -156h297q-45 66 -101 122.5t-119 102.5t-138.5 80.5t-155.5 52.5q41 -46 76.5 -95.5t69.5 -106.5zM673 1637
q53 106 134 198q-151 -41 -276.5 -132.5t-208.5 -219.5h284q14 41 30.5 78.5t36.5 75.5zM1394 475q-35 -80 -79.5 -144t-90.5 -122q130 32 237.5 100.5t194.5 165.5h-262zM673 402q-10 17 -18.5 35t-16.5 38h-245q82 -92 183.5 -158.5t219.5 -101.5q-32 42 -65 87.5
t-58 99.5z" />
    <glyph glyph-name="uniE12C" unicode="&#xe12c;" 
d="M944 1813h159v-1578h-159v1578zM2048 1262v-475h-790v475h790zM0 1262h788v-475h-788v475z" />
    <glyph glyph-name="uniE12D" unicode="&#xe12d;" 
d="M509 1380h-204q0 22 8 41.5t22.5 32t33 20.5t37.5 8h205q0 -21 -8.5 -39t-20.5 -32t-31.5 -22.5t-41.5 -8.5zM1124 1686h-205l307 307l307 -307h-205v-1018q0 -22 -8.5 -41.5t-23 -32.5t-31.5 -20.5t-39 -7.5q-23 0 -41 7.5t-31 20.5t-21.5 32.5t-8.5 41.5v1018z
M1946 1277q20 0 39 -6.5t33.5 -20.5t22 -33.5t7.5 -41.5v-1019q0 -22 -7.5 -40t-22 -31.5t-33.5 -22t-39 -8.5h-1844q-20 0 -39 8.5t-33.5 22t-22 31.5t-7.5 40v1019q0 22 7.5 41.5t22 33.5t33.5 20.5t39 6.5h407q45 0 81.5 17t64 44.5t43.5 65.5t16 78q0 22 8.5 41.5
t23 31.5t31.5 20.5t40 8.5h204v-511q-54 -25 -101.5 -66.5t-82.5 -94.5t-52 -115.5t-17 -128.5q0 -95 35.5 -180t98.5 -146.5t146 -99t178 -37.5t178 37.5t146 99t98.5 146.5t35.5 180q0 66 -18 128.5t-52.5 115.5t-81.5 94.5t-102 66.5v511h211q19 0 38 -8.5t33 -20.5
t22 -31.5t8 -41.5q0 -40 15 -78t44 -65.5t66 -44.5t79 -17zM305 873q21 0 41 6t33 20.5t20.5 34t7.5 39.5q0 19 -7.5 38.5t-20.5 34.5t-33 21t-41 6q-20 0 -38.5 -6t-33 -21t-22.5 -34.5t-8 -38.5q0 -20 8 -39.5t22.5 -34t33 -20.5t38.5 -6z" />
    <glyph glyph-name="uniE12E" unicode="&#xe12e;" 
d="M2044 300q2 -10 3 -19t1 -17q0 -44 -26 -79q-32 -42 -87 -51q-5 -1 -10.5 -1h-8.5q-27 0 -54 8.5t-48 25.5l-464 358q-46 35 -59 93q-4 17 -4 32l-95 71q-97 -100 -224 -152.5t-267 -52.5q-143 0 -269 52.5t-226 152.5q-99 99 -152.5 226.5t-53.5 268.5q0 140 53.5 266.5
t151.5 227.5q101 98 227 151.5t269 53.5q140 0 267 -53.5t225 -151.5q100 -101 152.5 -227.5t52.5 -266.5q0 -101 -28 -196.5t-79 -177.5l89 -70l8 2t9 2h11h10q28 0 55 -7.5t47 -23.5l463 -355q24 -18 38.5 -40.5t22.5 -49.5zM701 691q108 0 203.5 40.5t166 112t112.5 167
t42 205.5q0 107 -42 203t-112.5 167t-166 111.5t-203.5 40.5q-111 0 -206 -40.5t-166 -111.5t-112.5 -167t-41.5 -203q0 -110 41.5 -205.5t112.5 -167t166 -112t206 -40.5zM1049 1128h-263v-263h-174v263h-263v175h263v261h174v-261h263v-175z" />
    <glyph glyph-name="uniE12F" unicode="&#xe12f;" 
d="M2048 1536h-1539v205h1539v-205zM205 1536h-205v205h205v-205zM2048 1126h-1129v205h1129v-205zM2048 306h-1539v205h1539v-205zM205 306h-205v205h205v-205zM2048 716h-718v205h718v-205z" />
    <glyph glyph-name="uniE130" unicode="&#xe130;" 
d="M1743 2048q19 0 38 -8t33.5 -22.5t22.5 -33.5t8 -38v-1639l-308 -307h-1233q-20 0 -38.5 8t-32.5 22.5t-22 33t-8 38.5v1639l307 307h1233z" />
    <glyph glyph-name="uniE131" unicode="&#xe131;" 
d="M1766 2048q34 0 56.5 -22.5t22.5 -56.5v-1661l-309 -308h-1255q-33 0 -55.5 22.5t-22.5 56.5v1661l308 308h1255zM1536 1026h-102v206q0 91 -33 165t-89 128.5t-129.5 85.5t-159.5 31t-159 -31t-128.5 -85.5t-88.5 -128.5t-33 -165v-206h-103v-718h1025v718zM1023 1498
q59 0 108.5 -20t85.5 -54t59 -82t23 -110v-206h-550v206q0 62 23 110t58.5 82t84.5 54t108 20z" />
    <glyph glyph-name="uniE132" unicode="&#xe132;" 
d="M203 1945q0 42 30 72.5t72 30.5h718v-821h822v-1124q0 -20 -7.5 -39t-22 -33.5t-34 -22.5t-39.5 -8h-1437q-20 0 -39.5 8t-33.5 22.5t-21.5 33.5t-7.5 39v1842zM1229 1432v616q16 -6 31 -14.5t30 -18.5t25 -19.5t16 -16.5l445 -445q7 -6 16.5 -16t19.5 -24.5t18.5 -30
t14.5 -31.5h-616z" />
    <glyph glyph-name="uniE133" unicode="&#xe133;" 
d="M145 1672l-21 25q-4 6 -4 11q0 7 4 10l66 89q5 5 12 5q8 0 13 -7l171 -178l314 415q6 6 12 6q7 0 11 -3l71 -83q5 -4 7 -12q0 -7 -4 -12l-411 -532zM145 962l-21 31q-4 5 -4 6q0 8 4 14l66 89q4 6 12 6q6 0 13 -6l171 -181l314 415q5 7 12 7q6 0 11 -5l71 -78q5 -4 7 -12
q0 -9 -4 -13l-411 -531zM145 265l-21 24q-4 7 -4 14t4 13l66 86q4 4 12 4t13 -5l171 -179l314 414q5 7 12 7t11 -4l71 -83q6 -4 7 -12q0 -6 -4 -12l-411 -532zM1928 1581h-971v177h971v-177zM1928 878h-971v175h971v-175zM1928 176h-971v175h971v-175z" />
    <glyph glyph-name="uniE134" unicode="&#xe134;" 
d="M1023 2048q140 0 272.5 -26t245 -72.5t206.5 -112.5t160 -144.5t103.5 -170t37.5 -190.5q0 -116 -50 -221.5t-140 -194t-212 -154.5t-272 -106l-658 -656v645q-157 38 -287 103t-226 155.5t-149.5 199.5t-53.5 229q0 99 37.5 190.5t103.5 170t160 144.5t206 112.5
t244.5 72.5t271.5 26zM953 1068q95 130 95 287q0 141 -69 220q-75 87 -177 87q-91 0 -154 -62q-59 -66 -59 -150q0 -82 51 -139q57 -63 133 -63q52 0 88 26v-5q0 -88 -56 -171q-9 -13 -18 -24.5t-21 -19t-23.5 -14.5t-26.5 -16v-102h103q23 22 47 46q24 25 46.5 50.5
t40.5 49.5zM1466 1068q94 131 94 287q0 140 -70 220q-73 87 -175 87q-91 0 -154 -62q-59 -66 -59 -150t51 -139q57 -63 131 -63q54 0 90 26v-5q0 -88 -56 -171q-9 -13 -18 -24.5t-21 -19t-23.5 -14.5t-26.5 -16v-102h103q23 22 47 46q24 25 46.5 50.5t40.5 49.5z" />
    <glyph glyph-name="uniE135" unicode="&#xe135;" 
d="M992 986l-992 740v59q0 44 21 66t70 22h1865q92 0 92 -88v-59l-999 -740h-57zM1023 698q18 0 36.5 4t28.5 10q11 6 27 15l933 694v-1132q0 -22 -10 -43.5t-25.5 -37t-36 -25t-40.5 -9.5h-1824q-21 0 -41.5 9.5t-36 25t-25 37t-9.5 43.5v1132l933 -694q15 -9 26 -15
q10 -6 28 -10t36 -4z" />
    <glyph glyph-name="uniE136" unicode="&#xe136;" 
d="M1334 1604h714v-178h-714v178zM1334 1248h714v-179h-714v179zM1334 889h714v-178h-714v178zM536 1159q-74 0 -138.5 28t-113 76t-76.5 112.5t-28 138.5t28 139t76.5 113.5t113 76.5t138.5 28t139 -28t113.5 -76.5t76.5 -113.5t28 -139t-28 -138.5t-76.5 -112.5
t-113.5 -76t-139 -28zM1063 930q10 -19 10 -40q0 -28 -17 -51l-447 -627q-30 -36 -73 -36q-45 0 -72 36l-447 627q-17 23 -17 51q0 20 9 40q11 24 33.5 35.5t46.5 11.5h892q27 0 49.5 -11.5t32.5 -35.5z" />
    <glyph glyph-name="uniE137" unicode="&#xe137;" 
d="M86 1109q-18 0 -34 8t-27 21.5t-18 30t-7 36.5v106q0 111 46 204t124.5 163.5t183.5 114.5t224 56q75 8 158 14q70 6 157.5 11t179.5 5q90 -1 166 -6t133 -10q69 -6 124 -16q114 -16 215 -60.5t175.5 -114t118 -161.5t43.5 -202v-108q0 -19 -7 -35t-19 -28.5t-29 -20.5
t-35 -8h-335q-19 0 -35 8t-27 21t-17.5 28.5t-6.5 35.5v230q0 23 -7.5 41t-21.5 33t-31 24t-38 9h-813q-22 0 -41.5 -9t-34.5 -24t-24.5 -34t-9.5 -42v-225q0 -20 -7.5 -36.5t-19 -30t-28.5 -21.5t-36 -8h-339zM855 1025h340v-430h258l-429 -425l-428 425h259v430z" />
    <glyph glyph-name="uniE138" unicode="&#xe138;" 
d="M877 1173h-877v875h877v-875zM0 875h2048v-875h-2048v875zM2048 2048v-875h-874v875h874z" />
    <glyph glyph-name="uniE139" unicode="&#xe139;" 
d="M1661 1412q0 -112 -36.5 -212t-99.5 -181t-151 -138.5t-190 -85.5v-476l-160 -319l-158 319v476q-103 28 -190.5 85.5t-151 138.5t-100 181t-36.5 212q0 87 23 168t65 151.5t100 128t128 99t151 65.5t169 24t169 -24t151.5 -65.5t129 -99t100.5 -128t64.5 -151.5
t22.5 -168zM1024 935q99 0 186 37t152 102t102.5 152t37.5 186q0 66 -17 126.5t-48 114.5t-74.5 97t-96.5 73.5t-114.5 48t-127.5 17.5q-99 0 -185.5 -37.5t-151.5 -102t-102.5 -152t-37.5 -185.5q0 -99 37.5 -186t102.5 -152t151.5 -102t185.5 -37zM1263 1412
q0 -49 -18.5 -93t-51 -76t-76.5 -51t-93 -19q-48 0 -92 19t-76 51t-50.5 76t-18.5 93t18.5 92t50.5 75.5t76 51.5t92 19q49 0 93 -19t76.5 -51.5t51 -75.5t18.5 -92z" />
    <glyph glyph-name="uniE13A" unicode="&#xe13a;" 
d="M1664 217q9 -20 9 -41q0 -29 -15.5 -53.5t-42.5 -38.5l-87 -41q-44 -22 -95 -32.5t-103 -10.5q-84 0 -165 27.5t-155.5 79t-140 125.5t-117.5 164q-32 49 -68 114q-32 48 -71 124.5t-79 169.5q-35 94 -59.5 163.5t-37.5 116.5q-15 53 -21 91q-21 71 -31 142t-10 139
q0 85 18 168.5t55.5 155.5t92 128.5t133.5 92.5l85 39q21 8 41 8q28 0 53 -15.5t37 -43.5l163 -373q9 -20 9 -40q0 -31 -15 -53t-43 -34l-169 -78q-33 -15 -51.5 -45t-18.5 -64q0 -27 11 -50l277 -634q16 -36 45 -53.5t62 -17.5q24 0 47 10l169 78q21 9 41 9q27 0 52.5 -16
t37.5 -43z" />
    <glyph glyph-name="uniE13B" unicode="&#xe13b;" 
d="M1862 1999q92 0 139 -52t47 -141v-1016q0 -89 -52.5 -137t-143.5 -48h-516l147 -556l-700 556h-587q-43 0 -79 15.5t-63 41.5t-40.5 64.5t-13.5 80.5v999q0 89 52.5 141t143.5 52h1666zM372 1536h-96v-278h96v278zM1669 1628h-78l-292 -277v185h-834v-560h834v189
l292 -282h78v745z" />
    <glyph glyph-name="uniE13C" unicode="&#xe13c;" 
d="M472 1321h315v-396h-315v-238l-472 437l472 433v-236zM2048 1124l-472 -437l-1 238h-314v396h314l1 236zM1024 1634q17 0 31 -6t25.5 -15.5t17.5 -24t6 -31.5v-877q0 -16 -6 -30t-17.5 -24.5t-25.5 -16.5t-31 -6t-31 6t-25.5 16.5t-17 24.5t-5.5 30v877q0 17 5.5 31.5
t17 24t25.5 15.5t31 6z" />
    <glyph glyph-name="uniE13D" unicode="&#xe13d;" 
d="M1024 1189q-89 0 -167 33.5t-136.5 92t-92 137t-33.5 167.5t33.5 167t92 136.5t136.5 92t167 33.5t167.5 -33.5t136.5 -92t91.5 -136.5t33.5 -167t-33.5 -167.5t-91.5 -137t-136.5 -92t-167.5 -33.5zM1656 908q14 -27 12 -57t-20 -54l-536 -752q-15 -21 -38.5 -33
t-49.5 -12t-49 12t-38 33l-537 752q-17 24 -19.5 54t11.5 57t39.5 42.5t55.5 15.5h1074q30 0 55.5 -15.5t39.5 -42.5z" />
    <glyph glyph-name="uniE13E" unicode="&#xe13e;" 
d="M1358 1612h169v-1178h-169v1178zM86 1277v-507h1186v-87h-1272v681h1272v-87h-1186zM2048 1364v-681h-436v87h351v507h-351v87h436zM1018 856h-846v335h846v-335zM1358 1617h-172v85h172v-85zM1527 1702h170v-85h-170v85zM1186 430h172v-84h-172v84zM1697 346h-170v84
h170v-84z" />
    <glyph glyph-name="uniE141" unicode="&#xe141;" 
d="M2048 1330q-55 -58 -121.5 -84t-135.5 -26q-66 0 -135 26l-443 -442q56 -120 56 -242q0 -100 -33.5 -191t-108.5 -166l-381 382q-154 -139 -282 -248t-223.5 -184t-155.5 -114.5t-78 -40.5l-4 1l-2 3q0 1 -0.5 1.5t-0.5 2.5q1 19 41 79t115 155t183.5 222.5t247.5 281.5
l-383 382q75 75 166 108.5t190 33.5q63 0 123 -14t120 -42l443 442q-26 69 -26 135q0 69 26 135.5t84 121.5z" />
    <glyph glyph-name="uniE142" unicode="&#xe142;" 
d="M2048 1073h-975v195h975v-195zM2048 683h-975v194h975v-194zM2048 292h-975v195h975v-195zM1659 1463q-105 62 -229 113q-53 21 -115.5 42.5t-132.5 38.5t-146.5 29t-157.5 15v-1148q0 -71 -19.5 -135t-58.5 -118.5t-97.5 -97.5t-137.5 -71q-97 -34 -192 -34
q-64 0 -121 15t-103.5 42t-80.5 65.5t-51 86.5q-9 23 -13 47.5t-4 48.5q0 58 23 116t65 109.5t101.5 93.5t132.5 68q48 17 95.5 25.5t95.5 8.5q52 0 90 -10t80 -29v1117l50 50q113 0 226 -29t216 -75t191.5 -102.5t153.5 -110.5t102 -100t37 -71z" />
    <glyph glyph-name="uniE143" unicode="&#xe143;" 
d="M1342 1663h-1094l385 385h1415v-1408l-386 -385v1087l-1343 -1338l-319 319z" />
    <glyph glyph-name="uniE144" unicode="&#xe144;" 
d="M1955 1676q40 0 66.5 -26.5t26.5 -67.5v-1117q0 -41 -26.5 -67.5t-66.5 -26.5h-1861q-40 0 -67 26.5t-27 67.5v1117q0 41 27 67.5t67 26.5h1861zM1861 1489h-1674v-932h1674v932zM467 651h-186v187h186v-187zM560 930h-279v187h279v-187zM932 930h-278v187h278v-187z
M1303 930h-278v187h278v-187zM1768 930h-373v187h373v-187zM1488 1396h280v-186h-280v186zM1119 1396h276v-186h-276v186zM746 1396h279v-186h-279v186zM281 1396h373v-186h-373v186zM1488 651h-928v187h928v-187zM1768 651h-187v187h187v-187z" />
    <glyph glyph-name="uniE145" unicode="&#xe145;" 
d="M1862 1769q39 0 72.5 -15t59 -39.5t40 -58.5t14.5 -72v-1119q0 -39 -14.5 -73t-40 -59t-59 -40t-72.5 -15h-1210v187h1210v1119h-1210v185h1210zM0 278v1491h465v-1491h-465z" />
    <glyph glyph-name="uniE146" unicode="&#xe146;" 
d="M1396 1769v-185h-1210v-1119h1210v-187h-1210q-39 0 -72.5 15t-59 40t-40 59t-14.5 73v1119q0 38 14.5 72t40 58.5t59 39.5t72.5 15h1210zM1583 278v1491h465v-1491h-465z" />
    <glyph glyph-name="uniE147" unicode="&#xe147;" 
d="M1862 1769q39 0 72.5 -15t59 -39.5t40 -58.5t14.5 -72v-653h-186v653h-1676v-653h-186v653q0 38 14.5 72t39.5 58.5t59 39.5t73 15h1676zM0 278v466h2048v-466h-2048z" />
    <glyph glyph-name="uniE148" unicode="&#xe148;" 
d="M1423 1307l530 -528l-216 -214l-744 742l744 741l216 -214zM310 0l-216 214l529 527l-529 528l216 214l744 -742z" />
    <glyph glyph-name="uniE149" unicode="&#xe149;" 
d="M1872 975q7 -60 7 -118q0 -84 -15.5 -166t-47 -160.5t-79.5 -150.5t-112 -136q-63 -61 -134 -106.5t-147.5 -76.5t-157.5 -46t-161 -15q-82 0 -165 15.5t-160.5 47.5t-149.5 80t-134 112q-62 62 -108.5 133t-77 148t-46 158t-15.5 163q0 84 16 164.5t47.5 159.5t79.5 151
t112 135q63 62 134 107.5t147.5 75.5t158 45.5t160.5 15.5v337l470 -462l-469 -464v332q-116 0 -224 -42t-196 -127q-90 -90 -134.5 -202t-44.5 -226q0 -116 42.5 -225t130.5 -197q43 -44 93 -78t105.5 -56.5t111.5 -33t116 -10.5q115 0 223 42t196 129q46 43 79 94
t55.5 106t34 113t11.5 116q0 57 -12 118h260z" />
    <glyph glyph-name="uniE14A" unicode="&#xe14a;" 
d="M2048 1009q0 -105 -21 -204t-59 -189t-93 -170t-126 -148l299 -298h-819v819l303 -303q97 94 152.5 220.5t55.5 277.5q0 99 -26.5 192t-73.5 172.5t-113 146.5t-145 114.5t-170.5 74t-189.5 26.5q-150 0 -281.5 -54.5t-227.5 -149t-151 -221.5t-55 -277
q0 -95 23.5 -181.5t66 -165t102.5 -142.5t133 -116l-215 -218q-95 73 -171 165t-131 197t-85 223t-30 244q0 143 36.5 270.5t101.5 238t158.5 202t205.5 156t244.5 101t274.5 36.5q137 0 268.5 -38.5t244.5 -106t208 -163.5t162 -210.5t105.5 -247.5t38.5 -273z" />
    <glyph glyph-name="uniE14B" unicode="&#xe14b;" 
d="M298 1490h-298l424 430l432 -430h-298v-133q0 -74 18 -152t56.5 -159t98.5 -158.5t143 -149.5q-55 -30 -118 -57t-137 -51q-83 86 -146.5 178.5t-101.5 186.5t-55.5 185t-17.5 177v133zM1224 248q70 42 133 88t120 96q63 -16 124.5 -30t128.5 -25l-42 -250
q-129 22 -246 52t-218 69zM1751 1490v-133q0 -115 -31 -237t-100 -244.5t-180 -241.5t-264 -217t-353.5 -172.5t-461.5 -117.5l-43 250q222 36 391.5 100.5t299.5 142.5t221.5 169t149 188t83.5 194t26 186v133h-296l432 430l423 -430h-297z" />
    <glyph glyph-name="uniE14C" unicode="&#xe14c;" 
d="M2048 1625h-1446v241h1446v-241zM240 1625h-240v241h240v-241zM240 1143h-240v242h240v-242zM240 662h-240v242h240v-242zM240 181h-240v241h240v-241zM2048 1143h-1446v242h1446v-242zM2048 662h-1446v242h1446v-242zM2048 181h-1446v241h1446v-241z" />
    <glyph glyph-name="uniE14D" unicode="&#xe14d;" 
d="M1805 98q0 -41 -28.5 -69.5t-69.5 -28.5h-1367q-20 0 -37.5 7.5t-31 21t-21 31.5t-7.5 38v1073q0 20 7.5 37.5t21 31t31 21t37.5 7.5h1367q20 0 38 -7.5t31.5 -21t21 -31t7.5 -37.5v-1073zM1511 1365h-97v294q0 60 -23 113.5t-63 93t-93 62.5t-114 23q-60 0 -113.5 -23
t-93 -62.5t-62.5 -93t-23 -113.5v-294h-98v303h1q2 79 33 148.5t83.5 121t122.5 81t150 29.5t151 -30.5t124 -83t84 -121.5t31 -145v-303zM438 1365v205h1q2 65 23.5 123.5t59 106t88 82t110.5 52.5q-22 -32 -38 -66.5t-27 -71.5q-54 -41 -86.5 -102t-32.5 -133v-196h-98z
M1121 1561q0 76 -35 139.5t-93 102.5q20 18 43.5 30t51.5 17q58 -52 93 -123.5t37 -156.5h1v-205h-98v196z" />
    <glyph glyph-name="uniE14E" unicode="&#xe14e;" 
d="M408 1122v517h516v-517h-516zM408 407v516h1232v-516h-1232zM1123 1122v517h517v-517h-517zM1940 1736h108v-204h-108v204zM1940 1431h108v-203h-108v203zM1940 1122h108v-199h-108v199zM1940 820h108v-204h-108v204zM1940 515h108v-204h-108v204zM2048 203v-203h-204
v107h96v96h108zM2048 2048v-204h-108v97h-96v107h204zM0 1532v204h108v-204h-108zM0 1228v203h108v-203h-108zM0 923v199h108v-199h-108zM0 616v204h108v-204h-108zM0 311v204h108v-204h-108zM108 107h96v-107h-204v203h108v-96zM204 2048v-107h-96v-97h-108v204h204z
M311 1941v107h204v-107h-204zM617 1941v107h204v-107h-204zM924 1941v107h199v-107h-199zM1228 1941v107h203v-107h-203zM1533 1941v107h203v-107h-203zM311 0v107h204v-107h-204zM617 0v107h204v-107h-204zM924 0v107h199v-107h-199zM1228 0v107h203v-107h-203zM1533 0v107
h203v-107h-203z" />
    <glyph glyph-name="uniE14F" unicode="&#xe14f;" 
d="M1698 1699q82 -55 147 -132t110 -167t69 -191t24 -206q0 -110 -29 -214.5t-80 -196t-123.5 -168t-161 -131.5t-190 -85t-212.5 -30q-71 0 -139 12t-137 37h129q97 0 186.5 26.5t167.5 75.5t141.5 116.5t109 148.5t69.5 172.5t24 188.5q0 81 -19 162t-53.5 157t-85 141
t-114.5 117l-197 -196v533h534zM90 1602h-90v89h90v-89zM90 1780h-90v89h90v-89zM269 1780h-88v89h88v-89zM447 1780h-89v89h89v-89zM625 1780h-89v89h89v-89zM803 1602h-90v89h90v-89zM90 1425h-90v88h90v-88zM803 1425h-90v88h90v-88zM90 1247h-90v89h90v-89zM803 1247
h-90v89h90v-89zM803 1780h-90v89h90v-89zM0 1158h1160v-624h-1160v624z" />
    <glyph glyph-name="uniE150" unicode="&#xe150;" 
d="M2048 459h-226v1130h226v-1130zM1355 912h-933l425 -453h-280l-567 565l567 565h280l-425 -452h933v-225z" />
    <glyph glyph-name="uniE151" unicode="&#xe151;" 
d="M1533 1109h-343v344h343v-344zM1190 938h858v-344h-858v344zM2048 1453v-344h-345v344h345zM322 1109h623v-171h-623l323 -344h-214l-431 430l431 429h213z" />
    <glyph glyph-name="uniE155" unicode="&#xe155;" 
d="M1840 2048q40 0 68.5 -27t28.5 -69v-1856q0 -42 -28.5 -69t-68.5 -27h-1634q-39 0 -67 27t-28 69v1856q0 42 28 69t67 27h1634zM1708 1821h-1369v-1366h1369v1366z" />
    <glyph glyph-name="uniE156" unicode="&#xe156;" 
d="M0 1852h585v-195h-389v-389h-196v584zM1464 1852h584v-584h-196v389h-388v195zM1852 779h196v-584h-584v196h388v388zM196 391h389v-196h-585v584h196v-388zM1025 1071q-50 0 -94.5 19.5t-78 53.5t-52.5 78t-19 96q0 49 19 93.5t52.5 78t78 51t94.5 17.5q49 0 94 -17.5
t78.5 -51t52.5 -78t19 -93.5q0 -52 -19 -96t-52.5 -78t-78.5 -53.5t-94 -19.5zM1358 918q12 -25 8 -53.5t-22 -50.5l-244 -291q-13 -17 -33.5 -26t-41.5 -9q-46 0 -76 35l-244 291q-18 22 -22 50.5t8 53.5q14 26 37 41.5t53 15.5h488q30 0 53 -15.5t36 -41.5z" />
    <glyph glyph-name="uniE158" unicode="&#xe158;" 
d="M1935 1485q23 0 44 -9.5t36.5 -26t24 -36.5t8.5 -44v-1255q0 -23 -8.5 -44.5t-24 -37t-36.5 -24t-44 -8.5h-1141q-49 0 -81.5 33t-32.5 81v1255q0 24 8.5 44t24 36.5t36 26t45.5 9.5h1141zM1821 1255h-913v-913h913v913zM455 563h-342q-48 0 -80.5 34t-32.5 83v1255
q0 23 8.5 44t23.5 36.5t36.5 24t44.5 8.5h1141q23 0 44.5 -8.5t37 -24t24 -36.5t8.5 -44v-229h-229v115h-913v-913h229v-345z" />
    <glyph glyph-name="uniE159" unicode="&#xe159;" 
d="M1102 867v-572l315 295v-195l-394 -395l-393 395v195l315 -295v572h157zM1023 1102h-156v158h156v-158zM1444 2048q22 0 37 -16.5t15 -36.5v-840q0 -21 -15 -37t-37 -16h-184v316h-473v-316h-184q-21 0 -36.5 16t-15.5 37v812q0 12 2.5 27t9.5 27t18.5 19.5t21.5 7.5h841
zM1337 1967h-629v-392h629v392z" />
    <glyph glyph-name="uniE15A" unicode="&#xe15a;" 
d="M1350 0h-1023v183h1023v-183zM1721 564q0 -20 -7.5 -37.5t-21 -29.5t-29.5 -18.5t-35 -6.5h-1209q-19 0 -35 6.5t-29 18.5t-20.5 29.5t-7.5 37.5v1391q0 40 27.5 66.5t64.5 26.5h1209q37 0 65 -26.5t28 -66.5v-1391zM1535 1862h-1023v-1019h1023v1019z" />
    <glyph glyph-name="uniE15B" unicode="&#xe15b;" 
d="M2048 169q0 -35 -13 -65t-37 -54t-54 -37t-66 -13h-1708q-34 0 -65 13t-55 37t-37 54t-13 65v1709q0 72 49.5 121t120.5 49h1708q72 0 121 -49t49 -121v-1709z" />
    <glyph glyph-name="uniE15C" unicode="&#xe15c;" 
d="M2048 1765h-1482v229h1482v-229zM2048 1309h-1482v227h1482v-227zM224 1765h-226v229h226v-229zM2048 510h-1482v229h1482v-229zM2048 53h-1482v229h1482v-229zM224 510h-226v229h226v-229z" />
    <glyph glyph-name="uniE15D" unicode="&#xe15d;" 
d="M1522 1023q0 99 -47.5 178.5t-127.5 127.5l55 106q51 -29 96 -72.5t77.5 -96.5t49 -114t16.5 -129t-16.5 -128.5t-49 -113t-77.5 -96.5t-96 -73l-55 106q80 48 127.5 127.5t47.5 177.5zM1930 1023q0 101 -28 195t-77 173t-116.5 146.5t-151.5 110.5l56 107
q98 -51 176.5 -128.5t136.5 -172.5t90 -204t32 -227t-32 -226.5t-90 -203.5t-136.5 -172t-176.5 -128l-56 106q84 43 151.5 110.5t116.5 146.5t77 172.5t28 194.5zM307 702q0 -17 -6.5 -35t-18 -29.5t-29.5 -18t-36 -6.5h-128q-18 0 -34.5 6.5t-29 18t-19 29.5t-6.5 35v643
q0 17 6.5 35t19 29.5t29 18t34.5 6.5h128q18 0 36 -6.5t29.5 -18t18 -29.5t6.5 -35v-643zM1053 1978q22 23 45 23q14 0 22 -14t8 -39v-1850q0 -24 -8.5 -38t-22.5 -14q-23 0 -44 23l-568 543q-16 15 -31 37.5t-24.5 44t-14.5 44t-5 46.5v479q0 23 5.5 46.5t15 46t24 44
t30.5 35.5z" />
    <glyph glyph-name="uniE15E" unicode="&#xe15e;" 
d="M1698 1390l292 285l22 3q10 -23 18 -49q7 -22 12.5 -49.5t5.5 -54.5q0 -104 -41 -194t-116 -157.5t-180.5 -107t-234.5 -41.5q-23 0 -45 2.5t-46 10.5l-963 -942q-40 -39 -80 -56t-80 -17q-47 0 -90.5 21t-80.5 57q-39 38 -65 85.5t-26 99.5q0 38 20 77t52 75l955 941
v145q0 104 40 195t109.5 158.5t163.5 106.5t201 39q28 0 54.5 -4.5t46.5 -9.5q24 -6 45 -14l1 -24l-294 -286l56 -246zM200 216q15 -15 33 -22t37 -7q40 0 68 28q14 14 21 32t7 37t-7 37t-21 32q-29 29 -69 29q-39 0 -69 -28q-29 -29 -29 -69q0 -19 7.5 -37t21.5 -32z" />
    <glyph glyph-name="uniE15F" unicode="&#xe15f;" 
d="M2048 667q0 -22 -7.5 -41.5t-22 -32t-33.5 -20.5t-39 -8h-720l-512 -409l103 409h-715q-20 0 -39 8t-33.5 20.5t-22 32t-7.5 41.5v1122q0 22 7.5 40.5t22 31.5t33.5 21.5t39 8.5h1844q20 0 39 -8.5t33.5 -21.5t22 -31.5t7.5 -40.5v-1122z" />
    <glyph glyph-name="uniE160" unicode="&#xe160;" 
d="M1434 1945q79 -78 154.5 -153.5l154.5 -154.5q36 -38 58.5 -76.5t31.5 -77.5t10.5 -78t1.5 -75v-1227q0 -20 -7.5 -39t-22 -33.5t-33.5 -22.5t-39 -8h-1437q-20 0 -39.5 8t-34 22.5t-22 33.5t-7.5 39v1842q0 42 30.5 72.5t72.5 30.5h821q37 0 76 -1.5t78 -10.5t78 -31
t75 -60zM1230 1432h410q0 36 -8 66t-17 48q-12 21 -27 39l-205 196q-18 18 -39 33q-18 11 -48 20t-66 9v-411zM1640 1227h-616v616h-615v-1637h1231v1021z" />
    <glyph glyph-name="uniE161" unicode="&#xe161;" 
d="M1936 2048q20 0 40 -12.5t37 -33t26 -42.5t9 -42v-1804q0 -20 -17 -41t-42.5 -37.5t-52.5 -26t-50 -9.5h-1773q-20 0 -40.5 9.5t-37 26t-26 37.5t-9.5 41v1804q0 20 9.5 42t26 42.5t37 33t40.5 12.5h1823zM1936 1593h-1823v-1479h1823v1479zM1822 227h-685v1136h685
v-1136zM911 227h-685v1136h685v-1136z" />
    <glyph glyph-name="uniE162" unicode="&#xe162;" 
d="M1935 2048q20 0 40.5 -12.5t36.5 -33t26 -42.5t10 -43v-1803q0 -20 -18 -41t-43.5 -37t-52.5 -26t-50 -10h-1771q-20 0 -40.5 10t-36.5 26t-26 37t-10 41v1803q0 21 10 43t26 42.5t36.5 33t40.5 12.5h1822zM1935 1591h-1822v-1477h1822v1477zM226 1366h231v-1139h-231
v1139zM568 1366h229v-1139h-229v1139zM910 1366h227v-1139h-227v1139zM1251 1366h226v-1139h-226v1139zM1590 1366h231v-1139h-231v1139z" />
    <glyph glyph-name="uniE163" unicode="&#xe163;" 
d="M1935 2048q21 0 42 -12.5t36 -32t25 -42.5t10 -44v-1803q0 -21 -17.5 -42.5t-43 -36.5t-52.5 -25t-48 -10h-1774q-21 0 -42 10t-36 25t-25 36.5t-10 42.5v1803q0 21 10 44t25 42.5t36 32t42 12.5h1822zM1935 1593h-1822v-1479h1822v1479zM566 1483h230v-230h-230v230z
M226 1138h229v-227h-229v227zM910 1483h227v-230h-227v230zM1252 1483h226v-230h-226v230zM1592 1483h229v-230h-229v230zM566 1138h230v-227h-230v227zM910 1138h227v-227h-227v227zM1252 1138h226v-227h-226v227zM1592 1138h229v-227h-229v227zM226 797h229v-231h-229v231
zM566 797h230v-231h-230v231zM910 797h227v-231h-227v231zM1252 797h226v-231h-226v231zM1592 797h229v-231h-229v231zM226 455h229v-228h-229v228zM566 455h230v-228h-230v228zM910 455h227v-228h-227v228zM1252 455h226v-228h-226v228z" />
    <glyph glyph-name="uniE164" unicode="&#xe164;" 
d="M878 96h-132l-109 293h-399l-106 -293h-132l379 976h118zM2048 1072v-98h-586v-292q0 -32 -15.5 -51t-33.5 -30q-21 -12 -48 -17h-195l-49 98h244v292h-488v98h488v147l244 146h-537v97h684l69 -52l-363 -240v-98h586zM974 1658v-244h-97v342h488v195h146q0 -4 -5 -12
t-12.5 -17t-16 -15.5t-15.5 -7.5v-143h586v-342h-97v244h-977zM273 486h328l-148 402q-8 21 -15 66h-3q-4 -21 -7.5 -37.5t-8.5 -28.5z" />
    <glyph glyph-name="uniE165" unicode="&#xe165;" 
d="M194 1317l533 -536h-194l-533 536l533 532h194zM2048 879q0 -94 -24 -180.5t-68.5 -162.5t-106 -138t-137 -106t-162.5 -68t-181 -24q-21 0 -38 7.5t-30 20.5t-20.5 31t-7.5 37q0 20 7.5 38.5t20.5 31t30 20.5t38 8q70 0 132 26.5t108 72.5t73 108t27 131q0 72 -27 133.5
t-73 107.5t-108 73t-132 27h-291v-292l-582 536l582 532v-291h291q94 0 181 -24.5t162.5 -68t137 -106t106 -138t68.5 -162t24 -180.5z" />
    <glyph glyph-name="uniE166" unicode="&#xe166;" 
d="M1887 1436q31 -34 56 -71q21 -32 39 -70t18 -74v-1117q0 -21 -8.5 -40t-22.5 -33.5t-33 -22.5t-41 -8h-1742q-22 0 -41 8t-33.5 22.5t-22.5 33.5t-8 40v1117q0 36 15 72t34 65q21 33 49 65l814 604q16 12 31.5 16.5t31.5 4.5t33.5 -5t31.5 -16zM243 195h1562v879h-1562
v-879zM280 1269h1487l-744 551z" />
    <glyph glyph-name="uniE167" unicode="&#xe167;" 
d="M1609 1024q0 -30 -21 -51.5t-52 -21.5h-1025q-31 0 -52 21.5t-21 51.5t21 51.5t52 21.5h1025q31 0 52 -21.5t21 -51.5zM584 805q49 0 91 20t74 53h172q-22 -48 -56 -88.5t-77 -70.5t-94.5 -45.5t-109.5 -15.5h-216q-79 0 -145 29t-116 78.5t-78.5 116.5t-28.5 142
t28.5 142.5t78.5 116t116 78t145 29.5h216q58 0 109.5 -15.5t94.5 -45.5t77 -70t56 -87h-172q-32 33 -74 52.5t-91 19.5h-216q-48 0 -88 -17t-70.5 -47t-47 -70t-16.5 -86q0 -45 16.5 -85t47 -69.5t70.5 -47t88 -17.5h216zM1680 1390q79 0 145 -29.5t116 -78t78.5 -116
t28.5 -142.5t-28.5 -142t-78.5 -116.5t-116 -78.5t-145 -29h-217q-57 0 -109 15.5t-95 45.5t-77 70.5t-55 88.5h171q32 -33 74 -53t91 -20h217q48 0 87.5 17.5t70 47t47 69.5t16.5 85q0 46 -16.5 86t-47 70t-70 47t-87.5 17h-217q-49 0 -91 -19.5t-74 -52.5h-171
q21 47 55 87t77 70t95 45.5t109 15.5h217z" />
    <glyph glyph-name="uniE168" unicode="&#xe168;" 
d="M1233 731h-6q-91 -265 -349 -265q-169 0 -271 124q-100 123 -100 336q0 283 136 469q143 179 371 179q88 0 153 -45q38 -21 58.5 -51t31.5 -62h3q3 34 19 140h207q-30 -328 -44 -494.5t-14 -172.5q0 -250 125 -250q118 0 195 141q79 136 79 355q0 324 -209 526
q-206 205 -578 205q-353 0 -585 -246q-233 -248 -233 -618q0 -371 223 -593q224 -225 602 -225q301 0 510 102v-192q-216 -94 -541 -94q-457 0 -735 277q-281 269 -281 717q0 453 297 753q294 301 753 301q431 0 713 -252q285 -252 285 -656q0 -297 -154 -488
q-153 -186 -372 -186q-287 0 -289 265zM1035 1403q-136 0 -221 -138q-85 -135 -85 -335q0 -132 59 -212q53 -79 149 -79q136 0 216 144q43 69 62 162t19 210q0 248 -199 248z" />
    <glyph glyph-name="uniE169" unicode="&#xe169;" 
d="M2048 1380h-1351v238h1351v-238zM2048 905h-1351v238h1351v-238zM0 1618h555l-279 -316zM2048 429h-1351v239h1351v-239z" />
    <glyph glyph-name="uniE16A" unicode="&#xe16a;" 
d="M2048 944h-1351v238h1351v-238zM276 1182l279 -317h-555z" />
    <glyph glyph-name="uniE16B" unicode="&#xe16b;" 
d="M1695 366q12 -44 12 -85q0 -61 -24 -113t-64.5 -89.5t-92 -58t-106.5 -20.5q-34 0 -66 8.5t-64 25.5q-48 28 -83 82.5t-58 124.5t-38 150t-24 159q-7 55 -25 113.5t-45 116.5q-24 -58 -43.5 -116.5t-25.5 -113.5q-4 -42 -11 -91t-17.5 -98.5t-23.5 -99t-31.5 -92.5
t-44 -78t-56.5 -57q-30 -20 -65 -27t-68 -7q-55 0 -107.5 20t-93.5 58t-65.5 90t-24.5 113q0 41 11 85q17 57 47.5 108.5t69.5 98t82.5 88t86 79t80 73t61.5 66.5l108 158l-290 1011h85l337 -730l346 730h87l-301 -1015q1 -2 8.5 -12t19 -24.5t25.5 -31t27.5 -33t26 -31
t19.5 -23.5q27 -31 65 -66t79 -72.5t83.5 -79t80 -88t66 -98t45.5 -108.5zM576 485q-29 -43 -47 -96.5t-18 -100.5q0 -36 11.5 -64t39.5 -41q22 -11 46 -11q29 0 55 15.5t48.5 38.5t40 50t26.5 50q9 19 18.5 56t18.5 82t15 91.5t6 82.5q0 27 -5 45q-41 -10 -77.5 -29.5
t-68 -45.5t-59.5 -57.5t-50 -65.5zM1502 183q28 13 40 41.5t12 64.5q0 47 -18 100t-48 96q-21 34 -49 65.5t-60.5 57.5t-68.5 45.5t-76 29.5q-5 -18 -5 -45q0 -36 6 -82.5t14 -91.5t17.5 -82t19.5 -56q9 -23 26.5 -50t39.5 -50t48.5 -38.5t55.5 -15.5q23 0 46 11z" />
    <glyph glyph-name="uniE16C" unicode="&#xe16c;" 
d="M1449 1544q19 0 34 -6.5t27 -19t19 -28.5t7 -34v-947q0 -70 -18.5 -134.5t-51 -121.5t-80 -103t-104.5 -79.5t-122.5 -52t-136.5 -18.5q-107 0 -200 40.5t-162.5 110.5t-109.5 162.5t-40 200.5v1129q0 82 30 155.5t82.5 128.5t123 88t152.5 33q80 0 150.5 -33t121.5 -88
t80 -128.5t29 -155.5v-868q0 -55 -19.5 -102t-54.5 -82.5t-82 -56t-101 -20.5t-101 20.5t-81 56t-53 82.5t-19 102v713q0 19 6 35t17.5 28t27 18.5t33.5 6.5q37 0 61.5 -25t24.5 -63v-716q0 -17 6 -34t18 -28.5t27 -19.5t33 -8q19 0 34 8t27 19.5t18.5 28.5t6.5 34l-1 878
q0 46 -15.5 86.5t-44 72.5t-66.5 50.5t-83 18.5t-84.5 -18.5t-69 -50.5t-47 -72.5t-17.5 -86.5v-1145q0 -70 28 -131t74 -106.5t108 -71t132 -25.5q71 0 133 25.5t108.5 70.5t73.5 105.5t27 130.5v951q0 36 23.5 63t60.5 27z" />
    <glyph glyph-name="uniE16D" unicode="&#xe16d;" 
d="M1878 1282v-1282h-1024v171h-598q-18 0 -34 6.5t-28 18.5t-18 27.5t-6 33.5v1535q0 36 25 61t61 25h320l20 85q6 13 13 29t18 28t24 20t31 8h512q18 0 32 -7.5t24 -19t17 -27.5t13 -31l21 -85h322q36 0 60.5 -25t24.5 -61v-510h170zM682 1708h512l-86 255h-340zM854 1282
h682v426h-191l20 -86h-854l22 86h-193v-1366h514v940zM1451 257h-428v-86h428v86zM1708 513h-685v-87h685v87zM1708 770h-685v-87h685v87zM1708 1025h-685v-84h685v84z" />
    <glyph glyph-name="uniE16E" unicode="&#xe16e;" 
d="M0 1936h2048v-103l-819 -820l-103 -924h-205l-102 924l-819 820v103z" />
    <glyph glyph-name="uniE16F" unicode="&#xe16f;" 
d="M1951 1072v-1072h-1366v391h-488v1657h683l390 -390h195zM877 1658l-195 195h-391v-1267h294v1072h292zM1756 877h-586v585h-390v-1266h976v681zM1658 1072l-293 293v-293h293z" />
    <glyph glyph-name="uniE170" unicode="&#xe170;" 
d="M0 1023q0 143 37 275t104 242t161 202.5t204.5 159.5t242.5 103.5t275 36.5t275.5 -36.5t242.5 -103.5t204 -159.5t160.5 -202.5t104 -242t37.5 -275q0 -141 -36.5 -272t-103 -241t-159.5 -203.5t-202.5 -161t-240.5 -104t-274 -36.5q-145 0 -278.5 36.5t-244.5 103
t-205.5 160t-162 203t-104.5 241.5t-37 274zM116 1023q0 -126 32.5 -243.5t92 -214t143.5 -179.5t182.5 -141.5t217 -91t247.5 -32.5q126 0 242.5 32.5t213.5 91.5t180 142.5t142 180t90.5 214t31.5 241.5q0 126 -32.5 243.5t-92 214.5t-143.5 180t-181 142t-214.5 91
t-243.5 32t-244 -32t-215.5 -91t-181 -142t-143 -180t-92 -214.5t-32.5 -243.5zM1492 1374q0 -34 -6.5 -63.5t-19.5 -51.5t-30 -35.5t-37 -13.5q-18 0 -36 13.5t-30 35.5t-19.5 51.5t-7.5 63.5t7.5 64t19.5 52t30 30.5t36 8.5q20 0 37 -8.5t30 -30.5t19.5 -52t6.5 -64z
M743 1374q0 -34 -7.5 -63.5t-20 -51.5t-30 -35.5t-35.5 -13.5q-20 0 -37 13.5t-30.5 35.5t-20 51.5t-6.5 63.5t6.5 64t20 52t30.5 30.5t37 8.5q18 0 35.5 -8.5t30 -30.5t20 -52t7.5 -64zM469 836q9 -35 34.5 -70t68 -66.5t96.5 -58.5t113.5 -46.5t121 -30t120.5 -10.5
q61 0 121.5 10.5t119.5 30t112.5 46t96.5 58t69 67t37 70.5q0 -60 -19 -117.5t-49.5 -109.5t-80 -92.5t-112.5 -73t-137 -51t-158 -18.5q-82 0 -156 18.5t-137 51t-113 73t-80 92.5t-49 109.5t-19 117.5z" />
    <glyph glyph-name="uniE171" unicode="&#xe171;" 
d="M1250 227q0 -94 -62 -161q-61 -66 -163 -66q-101 0 -164 67t-63 160q0 99 65 163q65 61 162 61q98 0 161 -62q64 -64 64 -162zM1193 681h-339l-56 1367h452z" />
    <glyph glyph-name="uniE172" unicode="&#xe172;" 
d="M112 1488h715l-131 -133h-631zM55 561h925v308l132 -110v-329h-1008zM29 1223l395 -313l287 227l94 -93l-342 -269q-17 -16 -39 -16q-24 0 -42 16l-382 302zM1646 1355q52 0 101.5 -18.5t94.5 -50t83 -76.5t65 -98t42.5 -112.5t15.5 -124.5q0 -95 -36.5 -177t-99.5 -141
t-146 -92.5t-182 -33.5v197q59 0 106.5 17.5t83 51t55 78.5t19.5 100q0 56 -22.5 107t-61.5 90t-91 61.5t-108 22.5h-415l255 -263h-251l-362 359l363 367h250l-255 -264h496z" />
    <glyph glyph-name="uniE173" unicode="&#xe173;" 
d="M1943 1844v-1226q0 -42 -16.5 -79t-43.5 -64.5t-65 -43.5t-80 -16h-611v-211h204q20 0 38.5 -8t32.5 -21.5t22 -32.5t8 -40v-102h-816v102q0 21 8 40t22 32.5t32.5 21.5t38.5 8h205v211h-613q-41 0 -79 16t-65 43.5t-43.5 64.5t-16.5 79v1226q0 41 16.5 78.5t43.5 65
t65 44t79 16.5h1429q42 0 80 -16.5t65 -44t43.5 -65t16.5 -78.5zM1738 1844h-1429v-1226h1429v1226zM1331 1232l-511 -307v612z" />
    <glyph glyph-name="uniE174" unicode="&#xe174;" 
d="M829 1574h-236l436 474l432 -474h-237v-314h-395v314zM1224 474h237l-432 -474l-436 474h236v314h395v-314zM1540 1025q0 -16 -6.5 -30.5t-16.5 -25.5t-24.5 -17t-31.5 -6h-876q-16 0 -30 6t-25 17t-17 25.5t-6 30.5t6 30.5t17 25t25 17.5t30 7h876q17 0 31.5 -7
t24.5 -17.5t16.5 -25t6.5 -30.5z" />
    <glyph glyph-name="uniE178" unicode="&#xe178;" 
d="M488 682h-390q-41 0 -69.5 28t-28.5 70v976q0 20 7.5 37.5t21 31t31.5 21t38 7.5h1561q20 0 38 -7.5t31.5 -21t21 -31t7.5 -37.5v-391h-196v293h-1366v-781h293v-195zM974 682h98v-196h-98v196zM1756 486h-98v196h98v-196zM2048 584v-390h-1366v390h195v-195h293v195h390
v-195h293v195h195zM1462 1072h-292v98h292v-98zM2048 974v-292h-195v98h-293v-98h-390v98h-293v-98h-195v292h1366z" />
    <glyph glyph-name="uniE179" unicode="&#xe179;" 
d="M2048 1735h-1232v203h1232v-203zM408 1633h-408v405h408v-405zM2048 921h-1232v205h1232v-205zM408 819h-408v407h408v-407zM2048 108h-1232v204h1232v-204zM408 7h-408v405h408v-405z" />
    <glyph glyph-name="uniE17A" unicode="&#xe17a;" 
d="M606 459h-509v185h509v-185zM1953 459h-509v185h509v-185zM1913 1943q26 0 49.5 -11.5t43.5 -31.5t31 -44t11 -49v-422h-2048v422q0 25 11 49t31 44t43.5 31.5t49.5 11.5h1778zM1769 1641q25 0 46.5 8.5t36.5 24.5t24 38t9 44q0 24 -9 46t-24 37.5t-36.5 24.5t-46.5 9
q-22 0 -43.5 -9t-38 -24.5t-24.5 -37.5t-8 -46q0 -22 8 -44t24.5 -38t38 -24.5t43.5 -8.5zM1159 552l328 -334l-129 -131l-334 330l-332 -330l-130 131l328 334l-328 328l130 135l333 -334l333 334l129 -135z" />
    <glyph glyph-name="uniE17B" unicode="&#xe17b;" 
d="M1913 1943q26 0 49.5 -12.5t43.5 -31.5t31 -43.5t11 -51.5v-417h-2048v417q0 27 11 51.5t31 43.5t43.5 31.5t49.5 12.5h1778zM1395 438q0 -29 -19 -52t-49 -23h-605q-30 0 -48.5 23t-18.5 52v223q0 32 18.5 52.5t48.5 20.5h210v468h185v-468h210q30 0 49 -20.5t19 -52.5
v-223zM1953 641v-185h-466v185h466zM562 456h-465v185h465v-185zM1769 1640q25 0 46.5 9.5t36.5 24.5t24 36.5t9 46.5q0 23 -9 44t-24 38t-36.5 26t-46.5 9q-22 0 -43.5 -9t-38 -26t-24.5 -38t-8 -44q0 -25 8 -46.5t24.5 -36.5t38 -24.5t43.5 -9.5z" />
    <glyph glyph-name="uniE17C" unicode="&#xe17c;" 
d="M1978 1814q30 0 50 -21.5t20 -48.5v-1441q0 -26 -20 -47.5t-50 -21.5h-675v278h559v1116h-1676v-1116h561v-278h-677q-30 0 -50 21.5t-20 47.5v1441q0 27 20 48.5t50 21.5h1908zM932 419v581l-277 -253v228l369 376l371 -376v-227l-278 252v-581h-185z" />
    <glyph glyph-name="uniE17D" unicode="&#xe17d;" 
d="M1784 1647h-1069v179h1069v-179zM359 1558h-359v355h359v-355zM359 845h-359v357h359v-357zM359 134h-359v355h359v-355zM1427 222h-712v179h712v-179zM1070 935h-355v179h536zM1601 134v825l-266 -245v221l356 357l357 -357v-221l-267 245v-825h-180z" />
    <glyph glyph-name="uniE181" unicode="&#xe181;" 
d="M1239 429q0 22 8.5 42t23 34t34 22.5t41.5 8.5h322q22 0 42 -8.5t34.5 -22.5t23 -34t8.5 -42v-322q0 -22 -8.5 -41.5t-23 -34t-34.5 -23t-42 -8.5h-322q-22 0 -41.5 8.5t-34 23t-23 34t-8.5 41.5v322zM1346 1619q0 -89 -33.5 -167t-92 -136.5t-136.5 -92t-167 -33.5
t-167 33.5t-136.5 92t-92 136.5t-33.5 167t33.5 167t92 136.5t136.5 92t167 33.5t167 -33.5t136.5 -92t92 -136.5t33.5 -167zM1025 73l-20 -28q-15 -21 -38.5 -33t-49.5 -12t-49 12t-38 33l-537 752q-17 24 -19.5 54t11.5 56q14 28 39.5 43.5t55.5 15.5h1074
q30 0 55.5 -15.5t39.5 -43.5q14 -26 11.5 -56t-19.5 -54l-32 -46h-270q-45 0 -84 -17t-68 -46t-45.5 -68t-16.5 -84v-463z" />
    <glyph glyph-name="uniE182" unicode="&#xe182;" 
d="M431 1937h325v-1295l429 484v-376l-592 -646l-593 646v376l431 -484v1295zM1817 75q-101 0 -166 61q-66 60 -66 149q0 91 66 149q66 57 166 57q103 0 165 -58q66 -59 66 -148q0 -92 -64 -150q-65 -60 -167 -60zM2040 1937l-64 -1295h-302l-65 1295h431z" />
    <glyph glyph-name="uniE183" unicode="&#xe183;" 
d="M878 1042l-417 -457v375l563 604l562 -604v-375l-417 457v-1042h-291v1042zM502 1753q-14 0 -27.5 13.5t-13.5 27.5v208q0 17 13.5 31.5t27.5 14.5h1043q15 0 23.5 -4t12.5 -10.5t4.5 -14.5t0.5 -17v-208q0 -7 -0.5 -14t-4.5 -13t-12.5 -10t-23.5 -4h-1043z" />
    <glyph glyph-name="uniE184" unicode="&#xe184;" 
d="M854 1449h339v-343h-339v343zM1793 1950v-1357q0 -17 -7.5 -32t-18.5 -27.5t-26.5 -19.5t-31.5 -7h-172v86h172v1112h-1370v-1112h171v-86h-171q-16 0 -31.5 7t-26.5 19.5t-18.5 27.5t-7.5 32v1357q0 15 7.5 32.5t18.5 31.5t26.5 24t31.5 10h1370q16 0 31.5 -10t26.5 -24
t18.5 -31.5t7.5 -32.5zM1108 0h-169v633l-258 -251v201l342 353l344 -353v-202l-259 252v-633z" />
    <glyph glyph-name="uniE185" unicode="&#xe185;" 
d="M1821 508q54 -136 100 -177q21 -19 56.5 -24.5t70.5 -5.5v-52h-533v52q22 1 40 1t30.5 0.5t24 2.5t19.5 7q28 24 28 58q0 42 -40 138l-81 196h-522l-91 -216q-29 -79 -29 -117q0 -30 24 -55q8 -5 19 -7.5t23.5 -3.5t29 -1.5t42.5 -2.5v-52h-449v52q23 5 39.5 6.5t29 3
t22.5 5t17 9.5q47 47 114 195l470 1115h79zM1499 793l-236 518l-226 -518h462zM634 1099h-377l-95 -281h-162l360 980h180l278 -773l-88 -207zM593 1204q-42 114 -71 204q-15 39 -28.5 77t-23.5 69.5t-16 53t-7 27.5h-1q-1 -5 -8.5 -27t-18.5 -53t-24 -69t-25 -77
q-32 -90 -72 -205h295z" />
    <glyph glyph-name="uniE186" unicode="&#xe186;" 
d="M1896 0h-1745v308h1745v-308zM1691 611h-206l-158 410h-615l-150 -410h-206l565 1437h205zM1280 1165q-70 178 -127 323q-24 60 -47 120.5t-42 109t-30.5 82.5t-12.5 43h-3q-2 -9 -14 -42.5t-30 -82t-41 -109t-47 -120.5q-56 -145 -126 -324h520z" />
    <glyph glyph-name="uniE187" unicode="&#xe187;" 
d="M1024 1078q-61 0 -114 23t-93.5 62.5t-64 93.5t-23.5 116q0 60 23.5 113.5t64 93.5t93.5 63.5t114 23.5q62 0 114.5 -23.5t93 -63.5t64 -93.5t23.5 -113.5q0 -62 -23.5 -116t-64 -93.5t-93 -62.5t-114.5 -23zM2005 1755v-1463q0 -60 -23 -113t-64 -92.5t-94 -63
t-114 -23.5h-1373q-61 0 -114 23.5t-93.5 63t-63.5 92.5t-23 113v1463q0 60 23 113t63.5 93t94 63.5t113.5 23.5h1373q61 0 114 -23.5t94 -63t64 -92.5t23 -114zM1808 1755q0 18 -8 36.5t-21 31.5t-31 21t-38 8h-1373q-20 0 -38 -8t-31 -21t-21 -31.5t-8 -36.5v-1463
q0 -18 8 -36.5t21 -31.5t31 -21t38 -8h1373q20 0 38 8t31 21t21 31.5t8 36.5v1463zM1410 918q10 -26 4.5 -55.5t-27.5 -49.5l-293 -294q-15 -16 -32 -23t-38 -7q-20 0 -37.5 7t-32.5 23l-292 294q-22 20 -28.5 49.5t5.5 55.5q13 30 37.5 45.5t52.5 15.5h590q29 0 53.5 -15.5
t37.5 -45.5z" />
    <glyph glyph-name="uniE188" unicode="&#xe188;" 
d="M73 1587h774q33 0 66.5 15.5t53.5 35.5l185 207q20 20 55.5 35t64.5 15h491q30 0 64.5 -13t55.5 -37l114 -112q22 -20 36.5 -56t14.5 -64v-1392q0 -28 -20.5 -48.5t-52.5 -20.5h-1902q-32 0 -52.5 20.5t-20.5 48.5v1296q0 28 20.5 49t52.5 21z" />
    <glyph glyph-name="uniE189" unicode="&#xe189;" 
d="M1381 1654q-81 50 -178 91q-42 17 -91 33.5t-104.5 30t-116 23.5t-124.5 12v-847q0 -55 -16.5 -107.5t-49.5 -96t-80.5 -79t-111.5 -57.5q-78 -28 -153 -28q-51 0 -96.5 13t-82.5 33.5t-64.5 52.5t-40.5 71q-14 38 -14 77q0 48 18 94t52 87.5t81.5 75.5t105.5 55
q75 28 153 28q41 0 74 -8.5t67 -24.5v823l40 42q90 0 179 -25t171 -61t152 -81.5t122 -89.5t80 -80.5t28 -56.5zM2010 1024q-81 49 -177 91q-43 17 -92.5 34.5t-105 30.5t-115.5 23t-124 13v-845q0 -59 -16.5 -110.5t-50 -95.5t-81 -79t-110.5 -56q-75 -30 -152 -30
q-51 0 -97 13t-83 34.5t-64 52.5t-40 70q-16 39 -16 76q0 47 18.5 94t53 89t82 76t105.5 55q75 26 152 26q42 0 74 -7.5t67 -22.5v820l41 42q89 0 179 -23.5t171 -61t151.5 -83t122 -89t79.5 -80t28 -57.5z" />
    <glyph glyph-name="uniE18A" unicode="&#xe18a;" 
d="M1024 0l-1024 1024l1024 1024l1024 -1024z" />
    <glyph glyph-name="uniE18B" unicode="&#xe18b;" 
d="M1365 724q0 -70 -27 -132.5t-73 -108t-109 -72t-133 -26.5t-132 26.5t-108.5 72t-74 108t-27.5 132.5t27.5 133t74 109.5t108.5 74t132 27.5t133 -27.5t109 -74t73 -109.5t27 -133zM2048 724h-189q0 104 -29.5 199.5t-84.5 179t-131 152.5t-168.5 117.5t-199.5 75
t-223 26.5t-222.5 -26.5t-198.5 -75t-167.5 -117.5t-130.5 -152.5t-84.5 -179t-29.5 -199.5h-190q0 131 37 250t103 224t159.5 190.5t207 146t244 94t272.5 33.5q143 0 273.5 -33.5t244 -94t208 -146t160 -190.5t102.5 -224t37 -250z" />
    <glyph glyph-name="uniE18C" unicode="&#xe18c;" 
d="M944 0v578l-318 -299v197l397 399l398 -399v-197l-318 299v-578h-159zM1581 2048q32 0 60.5 -13.5t51 -34.5t34 -50.5t11.5 -61.5v-716q0 -33 -11.5 -62t-34 -49.5t-51 -33.5t-60.5 -13h-1115q-32 0 -60.5 13t-50.5 33.5t-33.5 49.5t-11.5 62v716q0 32 11.5 61.5
t33.5 50.5t50.5 34.5t60.5 13.5h1115zM1581 1888h-1115v-716h1115v716z" />
    <glyph glyph-name="uniE18D" unicode="&#xe18d;" 
d="M1502 2048v-955h-955v955h955zM945 0v577l-318 -299v198l397 399l398 -399v-197l-318 298v-577h-159z" />
    <glyph glyph-name="uniE190" unicode="&#xe190;" 
d="M1771 1673q57 0 108 -22t88.5 -60t59 -89t21.5 -108v-742q0 -57 -21.5 -107.5t-59 -88.5t-88.5 -60t-108 -22h-1493q-57 0 -108 22t-89 60t-59.5 88.5t-21.5 107.5v742q0 57 21.5 108t59.5 89t89 60t108 22h1493zM939 1362l-7 3q-42 19 -91.5 30t-94.5 11q-39 0 -78 -8
t-75.5 -23.5t-69 -36.5t-58.5 -47q-51 -51 -78.5 -121t-27.5 -147q0 -40 7 -79.5t20 -75t31 -66.5t41 -54q23 -24 56 -43.5t68.5 -34t70.5 -22t63 -7.5q56 0 113 15t104 41l4 4v168l-18 -15q-34 -28 -77.5 -43t-88.5 -15q-96 0 -153 59q-28 28 -42.5 71.5t-14.5 96.5
q0 51 14.5 90.5t46.5 72.5q61 64 156 64q41 0 84.5 -14t75.5 -38l19 -14v178zM1689 1362l-6 3q-43 19 -92 30t-94 11q-39 0 -78.5 -8t-76 -23.5t-69 -36.5t-58.5 -47q-51 -51 -77.5 -121t-26.5 -147q0 -40 6.5 -79.5t19.5 -75t31 -66.5t40 -54q24 -24 57 -43.5t68.5 -34
t70.5 -22t63 -7.5q55 0 112.5 15t103.5 41l6 4v168l-20 -15q-33 -28 -76.5 -43t-88.5 -15q-96 0 -153 59q-28 28 -42.5 71.5t-14.5 96.5q0 51 14.5 90.5t46.5 72.5q60 64 155 64q42 0 85 -14t76 -38l18 -14v178z" />
    <glyph glyph-name="uniE191" unicode="&#xe191;" 
d="M1845 2048q20 0 39 -7.5t33.5 -22t22 -34t7.5 -39.5v-1842q0 -20 -7.5 -39t-22 -33.5t-33.5 -22.5t-39 -8h-1642q-20 0 -39.5 8t-33.5 22.5t-21.5 33.5t-7.5 39v1842q0 42 30 72.5t72 30.5h1642zM1742 1843h-1437v-1437h1437v1437zM1332 817h-616v615h616v-615z" />
    <glyph glyph-name="uniE192" unicode="&#xe192;" 
d="M489 1561q0 76 21.5 141.5t58.5 119t88 96t110 71t124 44t133 15.5q101 0 197.5 -34t171.5 -96t121 -152.5t46 -204.5q0 -92 -28.5 -169t-76.5 -142t-113 -116.5t-140 -88.5v-710q0 -18 -8 -49.5t-22.5 -69t-33 -76.5t-38 -69.5t-39 -50.5t-37.5 -20q-14 0 -27.5 8
t-28.5 21t-29.5 29.5t-29.5 32.5q-31 41 -61 92v61l88 60v63l-88 60v61l88 60v120l-88 59v318q-81 33 -147 84.5t-113 117t-73 144t-26 170.5zM1024 284l31 -59l58 59v738h-89v-738zM1426 1512q0 72 -28 144.5t-79.5 129.5t-126.5 92.5t-168 35.5q-92 0 -166.5 -35.5
t-126.5 -92.5t-79.5 -129.5t-27.5 -144.5h802z" />
    <glyph glyph-name="uniE193" unicode="&#xe193;" 
d="M1697 0h-1486v279h1486v-279zM1837 1725l-882 -882l-325 327l881 878zM528 515l-269 94l278 370l234 -228z" />
    <glyph glyph-name="uniE194" unicode="&#xe194;" 
d="M558 1627q-14 -9 -23.5 -16.5t-22.5 -15t-22.5 -15t-21.5 -19.5q-7 -5 -16 -14t-16.5 -21t-14.5 -19.5t-9 -9.5l-412 419q29 36 62 69t69 63zM2048 132q-61 -71 -132 -132l-346 347q6 5 12.5 11.5t15.5 14.5q25 25 49.5 54t45.5 58zM1699 1052q5 -48 5 -94
q0 -66 -12 -130.5t-37 -126.5t-62.5 -119t-95.5 -112q-49 -50 -105 -86.5t-116.5 -61t-124 -36.5t-127.5 -12q-66 0 -131 12.5t-125 37.5t-117.5 64t-106.5 88q-56 56 -93 112t-61 117.5t-35.5 124.5t-11.5 128q0 66 12 131t37 126t62.5 118t95.5 107q50 47 105.5 87t116 64
t124.5 35.5t127 11.5v273l371 -371l-370 -378v268q-90 0 -176 -33t-155 -103q-71 -69 -106.5 -156.5t-35.5 -179.5q0 -91 34 -177.5t102 -155.5q36 -35 75 -61.5t82 -47.5t88.5 -30t91.5 -9q90 0 175.5 37t154.5 106q36 36 63 75.5t44 82.5t26.5 88.5t9.5 91.5q0 44 -11 94
h213z" />
    <glyph glyph-name="uniE195" unicode="&#xe195;" 
d="M1572 618l476 -474q-68 -78 -146 -144l-192 194zM725 1362h-181l-544 541q35 40 70 75t75 70l605 -605zM1025 1770l181 -541h576l-469 -343l177 -545l-462 335l-460 -335l173 543l-476 345h582z" />
    <glyph glyph-name="uniE196" unicode="&#xe196;" 
d="M802 1323q-43 12 -91 12q-64 0 -128 -20l-583 586q68 77 146 147l690 -691zM2048 146q-32 -40 -69 -76t-77 -70l-583 587q20 66 20 130q0 50 -11 89l33 34zM1724 1236q-39 -41 -85 -57.5t-91 -16.5q-49 0 -91 12l-303 -299q17 -41 26.5 -82.5t9.5 -86.5
q0 -65 -22.5 -129.5t-74.5 -109.5l-258 258q-106 -94 -193 -167.5t-152.5 -125.5t-106 -80.5t-53.5 -28.5q-4 0 -5 3q-1 1 -1 4q0 14 28.5 54.5t80 106t125 151.5t167.5 193l-258 258q45 52 109 74.5t129 22.5q45 0 87 -9.5t83 -26.5l298 303q-11 45 -11 91q0 45 16.5 91
t56.5 85z" />
    <glyph glyph-name="uniE197" unicode="&#xe197;" 
d="M1997 1733q22 -20 36.5 -56t14.5 -64v-1392q0 -28 -20.5 -48.5t-52.5 -20.5h-851v745l308 -282v256l-411 409l-409 -409v-257l307 283v-745h-848q-32 0 -52.5 20.5t-20.5 48.5v1296q0 28 20.5 49t52.5 21h776q33 0 66.5 15.5t53.5 35.5l185 207q20 20 55.5 35t64.5 15
h491q30 0 64.5 -15.5t55.5 -34.5z" />
    <glyph glyph-name="uniE198" unicode="&#xe198;" 
d="M2048 705l-115 -107l-324 326l-330 -329l-110 110l330 329l-330 329l110 110l330 -329l329 329l110 -110l-330 -329zM292 709q0 -17 -6.5 -32.5t-18 -27t-27 -18t-33.5 -6.5h-123q-18 0 -33 6.5t-26.5 18t-18 27t-6.5 32.5v613q0 17 6.5 32.5t18 27t26.5 18t33 6.5h123
q18 0 33.5 -6.5t27 -18t18 -27t6.5 -32.5v-613zM1003 1925q22 21 40 21q14 0 22 -13t8 -38v-1760q0 -24 -8.5 -37t-22.5 -13q-18 0 -39 21l-543 518q-15 15 -28 35t-22.5 41.5t-14.5 43.5t-5 42v459q0 19 5.5 42t15 45t22 41.5t27.5 33.5z" />
    <glyph glyph-name="uniE199" unicode="&#xe199;" 
d="M883 0h-286l567 2048h286z" />
    <glyph glyph-name="uniE19A" unicode="&#xe19a;" 
d="M1586 0h-1116v205h1116v-205zM1431 674q-36 -44 -84.5 -73t-102.5 -51t-115 -31.5t-118 -9.5q-101 0 -195 30t-168 86q-60 55 -98.5 121.5t-57 140.5t-25 155t-6.5 159v847h204v-899q0 -46 6 -101t20 -107.5t39 -99t70 -78.5q37 -28 97 -41.5t128 -13.5q73 0 139 16.5
t104 54.5q42 32 63.5 75.5t32 92t14.5 99.5t4 98v904h204v-718q0 -115 -3 -208.5t-17 -170.5t-45.5 -146.5t-89.5 -130.5z" />
    <glyph glyph-name="uniE19B" unicode="&#xe19b;" 
d="M1817 607q0 -276 -204 -441q-102 -83 -249.5 -124.5t-330.5 -41.5h-803v2048h767q170 0 307 -34t230 -98q85 -64 127 -150t42 -197q0 -92 -29.5 -165t-96.5 -144q-53 -48 -114 -91.5t-139 -72.5v-5q112 -19 205 -53.5t159 -109.5q129 -128 129 -321zM1229 1499
q0 37 -18.5 73t-56.5 67t-98 49.5t-149 18.5h-221v-454h248q78 0 129.5 16t87.5 46q49 44 63.5 86t14.5 98zM1308 620q0 66 -22.5 122.5t-53.5 91.5q-17 20 -48 35t-58.5 22.5t-62.5 12t-56 4.5h-321v-567h319q19 0 51.5 5t59.5 14.5t60 23t54 34.5q39 38 58.5 91t19.5 111z
" />
    <glyph glyph-name="uniE19C" unicode="&#xe19c;" 
d="M995 2048v-574l235 217v-195l-315 -315l-314 315v195l236 -217v574h158zM1763 552l-238 -486q-9 -24 -22.5 -45t-37.5 -21h-1180v816q0 21 16.5 36t35.5 15h586q11 0 24 3.5t24.5 9t23 13t19.5 14.5l86 81q8 8 18.5 15t23.5 11t25.5 7.5t24.5 3.5h217q24 0 50 -11t42 -26
l85 -82q18 -16 28 -41t10 -46v-188h-1156l-40 -393h27l130 314h1178z" />
    <glyph glyph-name="uniE19D" unicode="&#xe19d;" 
d="M980 1539q0 -30 -22.5 -72.5t-62 -88t-92 -89.5t-108.5 -78q-42 -25 -76 -59t-60.5 -70t-43.5 -71.5t-25 -60.5q-12 -49 -36 -69.5t-45 -20.5q-23 0 -38.5 17t-18.5 48q-2 9 -2 16.5v16.5q0 56 14 110.5t35 87.5q14 16 31.5 42.5t31.5 50.5q18 25 35 54q-88 11 -170 19
q-36 4 -72 7.5t-68.5 8t-62.5 8t-49 4.5q-19 2 -32 25t-13 51q0 29 14 52q2 6 8.5 18.5t14.5 25.5t12.5 26.5t7.5 19.5q3 7 4.5 24t5 36.5t6 36.5t4.5 25q5 21 14.5 38t20.5 30t20.5 25t14.5 25q8 18 12 33t7.5 27.5t9.5 25.5t15 27q17 23 35.5 45t38.5 40.5t43 30t48 11.5
q32 0 85 -1t114 -3.5t125.5 -5.5t119.5 -8t96.5 -10.5t53.5 -14.5v-466zM1152 2048h168v-681h-168v681zM1067 511q0 29 22.5 71.5t62 87t92.5 89.5t109 81q42 25 76 59t60 70.5t43.5 71t23.5 58.5q13 49 36.5 70.5t45.5 21.5q23 0 38.5 -17.5t18.5 -49.5q1 -9 1 -16.5v-15.5
q0 -58 -13.5 -112t-34.5 -85q-14 -19 -31 -45t-31 -48q-18 -27 -35 -57q88 -10 170 -16q35 -5 70.5 -10t68.5 -8t62.5 -7t48.5 -7q21 -1 34 -23.5t13 -50.5q0 -29 -14 -51q-2 -5 -8.5 -17.5t-14.5 -27t-12.5 -27t-7.5 -19.5t-4.5 -23.5t-5 -36.5t-6.5 -36.5t-4 -23.5
q-5 -23 -15 -39t-20.5 -30t-19 -25.5t-15.5 -23.5q-8 -18 -12.5 -33.5t-7.5 -28t-8.5 -25.5t-13.5 -26q-18 -24 -37 -47t-39 -41t-43.5 -30t-48.5 -12q-32 0 -84.5 1.5t-114 4t-126 5.5t-119.5 8t-96.5 11t-53.5 13v468zM896 0h-168v679h168v-679z" />
    <glyph glyph-name="uniE19E" unicode="&#xe19e;" 
d="M1471 1035q0 -47 -28.5 -98t-81.5 -104t-128 -108t-169 -111q-64 -39 -118.5 -95t-96.5 -115.5t-69 -116t-38 -95.5q-22 -77 -59 -112.5t-74 -35.5q-35 0 -62 29t-30 81q-1 12 -1 25v25q0 47 5 92.5t14.5 87.5t24 78t34.5 62q22 30 49.5 71.5t50.5 79.5q27 45 56 92
q-142 14 -272 28q-55 6 -113 12.5t-112.5 12.5t-101 11.5t-79.5 10.5q-33 4 -52.5 41.5t-19.5 83.5q0 42 20 81q5 8 15 27.5t21.5 42t20.5 43.5t14 33q2 13 6.5 40t8.5 57t8.5 58t8.5 43q8 34 24 60.5t32 48t31.5 40.5t23.5 39q14 30 21.5 53.5t14 45t14 42t23.5 41.5l17 25
q23 35 47.5 67.5t51 58t58 41t69.5 15.5h38h141t174 -1t184 -5t171 -9t135 -13t78 -19v-887zM1709 1969h339v-1019h-339v1019z" />
    <glyph glyph-name="uniE19F" unicode="&#xe19f;" 
d="M577 977q0 47 28.5 98t81.5 104t128 108t169 111q64 39 118.5 95t96.5 115.5t69 116t38 95.5q22 77 59 112.5t74 35.5q35 0 62 -29t30 -81q1 -12 1 -25v-25q0 -47 -5 -92.5t-14.5 -87.5t-24 -78t-34.5 -62q-22 -30 -49.5 -71.5t-50.5 -79.5q-27 -45 -56 -92
q142 -14 272 -28q55 -6 113 -12.5t112.5 -12.5t101 -11.5t79.5 -10.5q33 -4 52.5 -41.5t19.5 -83.5q0 -42 -20 -81q-5 -8 -15 -27.5t-21.5 -42t-20.5 -43.5t-14 -33q-2 -13 -6.5 -40t-8.5 -57t-8.5 -58t-8.5 -43q-8 -34 -24 -60.5t-32 -48t-31.5 -40.5t-23.5 -39
q-14 -30 -21.5 -53.5t-14 -45t-14 -42t-23.5 -41.5l-17 -25q-23 -35 -47.5 -67.5t-51 -58t-58 -41t-69.5 -15.5h-38h-141t-174 1t-184 5t-171 9t-135 13t-78 19v887zM339 43h-339v1019h339v-1019z" />
    <glyph glyph-name="uniE1A0" unicode="&#xe1a0;" 
d="M2048 1821h-2048v227h2048v-227zM2048 1365h-1594v227h1594v-227zM2048 910h-2048v227h2048v-227zM2048 454h-1594v229h1594v-229zM2048 0h-2048v227h2048v-227z" />
    <glyph glyph-name="uniE1A1" unicode="&#xe1a1;" 
d="M2048 1821h-2048v227h2048v-227zM1820 1366h-1593v226h1593v-226zM2048 909h-2048v229h2048v-229zM1820 454h-1593v228h1593v-228zM2048 0h-2048v227h2048v-227z" />
    <glyph glyph-name="uniE1A2" unicode="&#xe1a2;" 
d="M2048 0h-2048v227h2048v-227zM2048 1821h-2048v227h2048v-227zM1592 1366h-1592v226h1592v-226zM2048 909h-2048v229h2048v-229zM1592 454h-1592v228h1592v-228z" />
    <glyph glyph-name="uniE1A3" unicode="&#xe1a3;" 
d="M2044 313q4 -16 4 -34q0 -46 -26 -80q-31 -41 -86 -51q-3 -1 -7.5 -1h-9.5q-28 0 -55 9t-48 26l-476 352q-22 17 -37 41.5t-22 51.5q-2 9 -3 16.5t-1 16.5l-92 71q-99 -99 -224.5 -151.5t-264.5 -52.5q-141 0 -266.5 52.5t-224.5 151.5t-152 225t-53 265q0 142 53 266.5
t152 222.5q99 101 224.5 153t266.5 52q139 0 265 -52t225 -153q98 -98 150 -222.5t52 -266.5q0 -100 -27.5 -194t-79.5 -177l88 -68l10.5 3.5t8.5 1.5h10h10q28 0 54.5 -8t45.5 -24l475 -351q22 -16 37.5 -41.5t23.5 -49.5zM696 700q106 0 200.5 41t165.5 112.5t112.5 166.5
t41.5 201q0 108 -41.5 202.5t-112.5 164.5t-165.5 112t-200.5 42q-108 0 -203 -42t-166 -112t-111.5 -164.5t-40.5 -202.5q0 -106 40.5 -201t111.5 -166.5t166 -112.5t203 -41z" />
    <glyph glyph-name="uniE1A4" unicode="&#xe1a4;" 
d="M1034 1320v-171h-690v171h690zM2044 313q4 -16 4 -34q0 -46 -26 -80q-31 -41 -86 -51q-3 -1 -7.5 -1h-9.5q-28 0 -55 9t-48 26l-476 352q-22 17 -37 41.5t-22 51.5q-2 9 -3 16.5t-1 16.5l-92 71q-99 -99 -224.5 -151.5t-264.5 -52.5q-141 0 -266.5 52.5t-224.5 151.5
t-152 225t-53 265q0 142 53 266.5t152 222.5q99 101 224.5 153t266.5 52q139 0 265 -52t225 -153q98 -98 150 -222.5t52 -266.5q0 -100 -27.5 -194t-79.5 -177l88 -68l10.5 3.5t8.5 1.5h10h10q28 0 54.5 -8t45.5 -24l475 -351q22 -16 37.5 -41.5t23.5 -49.5zM696 700
q106 0 200.5 41t165.5 112.5t112.5 166.5t41.5 201q0 108 -41.5 202.5t-112.5 164.5t-165.5 112t-200.5 42q-108 0 -203 -42t-166 -112t-111.5 -164.5t-40.5 -202.5q0 -106 40.5 -201t111.5 -166.5t166 -112.5t203 -41z" />
    <glyph glyph-name="uniE1A5" unicode="&#xe1a5;" 
d="M1845 1432h-616v616zM1845 1227v-1124q0 -20 -7.5 -39t-22 -33.5t-34 -22.5t-39.5 -8h-616v744l308 -278v253l-411 410l-409 -410v-253l307 278v-744h-616q-20 0 -39.5 8t-33.5 22.5t-21.5 33.5t-7.5 39v1842q0 42 30 72.5t72 30.5h718v-821h822z" />
    <glyph glyph-name="uniE1A6" unicode="&#xe1a6;" 
d="M1435 963q-2 52 18.5 98.5t56 81t82 54.5t97.5 21q54 0 100.5 -20.5t81 -55.5t54.5 -81t20 -98q0 -53 -20 -100t-54.5 -82t-81 -55t-100.5 -20q-51 1 -97.5 21t-82 54.5t-56 81t-18.5 100.5zM2038 547q10 -21 10 -45q0 -35 -23 -64l-257 -308q-29 -36 -79 -36
q-46 0 -77 36l-254 308q-25 28 -25 64q0 24 10 45q14 26 37.5 41t54.5 15h510q29 0 55 -15t38 -41zM1231 911q9 -78 39 -145q-36 -24 -69 -60h-1099q-21 0 -39.5 8.5t-32.5 22.5t-22 32.5t-8 38.5v1022q0 21 8 39.5t22 32.5t32.5 22t39.5 8h1635q20 0 38.5 -8t32.5 -22
t22.5 -32.5t8.5 -39.5v-437q-37 14 -75 22t-80 8q-14 0 -25 -2.5t-24 -4.5v313h-1431v-818h920h107z" />
    <glyph glyph-name="uniE1A7" unicode="&#xe1a7;" 
d="M720 835h-627q-39 0 -66 26t-27 68v927q0 39 27 65.5t66 26.5h1485q40 0 66 -26.5t26 -65.5v-464l-185 91v279h-1298v-742h464zM1489 92q-21 6 -70.5 29t-109.5 67t-127.5 115t-122.5 173t-89.5 241t-34.5 318q0 14 6.5 27.5t19.5 13.5q5 0 11 -0.5t13 -3.5
q24 -7 49.5 -20.5t48 -24.5t47 -18t42.5 -7q42 0 73.5 15.5t59 37t48 47t42.5 46.5q28 22 50.5 40t44.5 18q23 0 46.5 -18t48.5 -39q22 -21 44.5 -47t48 -47.5t58 -37t76.5 -15.5q21 0 42 7t45.5 18t47.5 24.5t48 20.5q8 3 18.5 4.5t11.5 1.5q12 0 17.5 -14.5t5.5 -28.5
q0 -178 -36.5 -316t-91.5 -240.5t-120.5 -173.5t-128.5 -116t-112 -68t-70 -29z" />
    <glyph glyph-name="uniE1C3" unicode="&#xe1c3;" 
d="M2048 214h-2048v256h2048v-256zM715 1343q63 -28 100.5 -70t37.5 -93q0 -40 -25 -76t-69 -64t-106.5 -44t-141.5 -16v-340h-170v382q-28 -21 -59.5 -32t-68.5 -11q-43 0 -82.5 16.5t-68.5 44.5t-45.5 64t-16.5 76q0 34 11 63.5t31.5 55.5t48 43.5t60.5 26.5
q-32 24 -49.5 55.5t-17.5 67.5q0 37 17 67t46 54t68.5 37t82.5 13q15 0 31 -1.5t31 -5.5q13 38 32 71t45 56.5t55 36.5t63 13q42 0 81.5 -23.5t68.5 -63.5t46 -94.5t17 -116.5q0 -55 -13.5 -104t-39.5 -88zM1963 1152v-512h-340v255h-171v-255h-342v512h-85v86l512 509
l511 -509v-86h-85zM1366 1152h-171v-173h171v173zM1877 1152h-168v-173h168v173z" />
    <glyph glyph-name="uniE1C4" unicode="&#xe1c4;" 
d="M1024 356l-87 266v368q-95 16 -175 63.5t-140 118t-94.5 159t-34.5 185.5q0 111 42.5 208t114 168.5t167.5 113.5t207 42q112 0 209 -42t167 -113.5t113 -168.5t43 -208q0 -97 -34 -185.5t-94 -159t-140.5 -118t-174.5 -63.5v-368zM1998 0h-1948l443 622h309v-88l88 -266
l134 -177l136 177l88 266v88h308zM1024 1916q-81 0 -155 -31.5t-127.5 -85.5t-84.5 -127t-31 -156q0 -82 31 -156t84.5 -128t127.5 -84.5t155 -30.5q82 0 156.5 30.5t128 84.5t84.5 128t31 156q0 83 -31 156t-84.5 127t-128 85.5t-156.5 31.5zM1024 1339q-39 0 -69.5 14.5
t-54.5 39t-37.5 54.5t-13.5 69q0 38 13.5 70t37.5 55.5t54.5 37.5t69.5 14t71 -14t54.5 -37.5t37 -55.5t14.5 -70q0 -39 -14.5 -69t-37 -54.5t-54.5 -39t-71 -14.5z" />
    <glyph glyph-name="uniE1C5" unicode="&#xe1c5;" 
d="M864 61l-144 144l218 219q109 108 157.5 206t48.5 185q0 65 -26 121.5t-73 103.5q-49 49 -108.5 74t-124.5 25q-82 0 -168.5 -40t-169.5 -124l-40 -40l283 -283h-717v719l290 -291l67 67q113 114 224.5 169t221.5 55q103 0 199.5 -47t188.5 -140q86 -85 130 -177.5
t44 -193.5q0 -76 -19 -142t-55.5 -130t-89 -128.5t-118.5 -137.5zM510 1986v-103h-103v-103h-103v206h206zM1845 1986h203v-206h-103v103h-100v103zM1845 345h100v101h103v-204h-203v103zM304 1678h103v-205h-103v205zM2048 755v-206h-103v206h103zM2048 1371v-207h-103v207
h103zM1534 1986h206v-103h-206v103zM613 1986h204v-103h-204v103zM1228 1986h204v-103h-204v103zM2048 1678v-205h-103v205h103zM920 1986h205v-103h-205v103zM2048 1062v-204h-103v204h103zM1534 345h206v-103h-206v103z" />
    <glyph glyph-name="uniE1C6" unicode="&#xe1c6;" 
d="M1319 0h-193l-151 397h-586l-141 -397h-196l547 1458h170zM926 582l-221 601q-7 26 -22 98h-5l-10.5 -56t-11.5 -42l-214 -601h484zM1123 2048h874l-438 -487z" />
    <glyph glyph-name="uniE1C7" unicode="&#xe1c7;" 
d="M1319 0h-193l-151 397h-586l-141 -397h-196l547 1458h170zM926 582l-221 601q-7 26 -22 98h-5l-10.5 -56t-11.5 -42l-214 -601h484zM1559 2048l438 -487h-874z" />
    <glyph glyph-name="uniE1C8" unicode="&#xe1c8;" 
d="M2048 278h-193l-153 413h-633l-154 -413h-188l11 27l-94 223h-419l-97 -250h-128l377 994h118l307 -801l504 1299h164zM605 632l-155 453q-4 8 -6.5 25t-8.5 41h-3q-6 -44 -15 -66l-153 -453h341zM1644 859l-231 630q-6 11 -11.5 36t-13.5 63h-4q-6 -31 -11.5 -56.5
t-12.5 -42.5l-232 -630h516z" />
    <glyph glyph-name="uniE1C9" unicode="&#xe1c9;" 
d="M1634 2048q21 0 39.5 -8t33.5 -21.5t23.5 -32t8.5 -38.5v-1847q0 -42 -31 -71.5t-74 -29.5h-1222q-21 0 -39 8t-32.5 21.5t-23.5 32t-9 39.5v1847q0 20 9 38.5t23.5 32t32.5 21.5t39 8h1222zM1290 358h-534v-179h534v179zM1559 1870h-1072v-1424h1072v1424z" />
    <glyph glyph-name="uniE1CA" unicode="&#xe1ca;" 
d="M2048 914l-401 -438l-404 438h292v512h-583l-221 219h1024v-731h293zM1096 621l221 -218h-1024v731h-293l401 437l403 -437h-292v-513h584z" />
    <glyph glyph-name="uniE1CB" unicode="&#xe1cb;" 
d="M1569 1499q-24 0 -41 13q-12 14 -12 35q0 22 12 40l422 422q17 16 42 16q22 0 39 -16q17 -17 17 -41q0 -11 -4.5 -21.5t-12.5 -17.5l-423 -417q-15 -13 -39 -13zM1999 1642q19 -18 27.5 -43.5t8.5 -51.5q0 -27 -8 -45l-127 -380q-5 -12 -16 -35t-26 -46.5t-30 -43.5
t-29 -33l-929 -927q-28 -28 -64 -28q-38 0 -69 28l-709 709q-28 28 -28 66q0 39 28 67l926 928q14 14 34.5 29.5t43.5 30t45.5 25t42.5 15.5l376 125q10 3 17 4.5t17 1.5q32 0 64 -11t52 -32l24 -24l-249 -248q-16 -12 -34 -30t-34 -41t-25.5 -47.5t-9.5 -46.5q0 -38 17 -76
t59 -80q43 -42 81.5 -60.5t72.5 -18.5q45 0 87.5 23.5t78.5 64.5l260 257z" />
    <glyph glyph-name="uniE1CC" unicode="&#xe1cc;" 
d="M1764 254q-133 -121 -303.5 -187.5t-363.5 -66.5h-18q-142 2 -273 41t-244.5 107.5t-207.5 163t-160.5 209t-104 247.5t-37.5 277q0 213 81.5 397t222.5 321l-281 285h795v-797l-295 294q-100 -95 -158.5 -226t-58.5 -280q0 -152 57 -284t154.5 -231t228 -157t281.5 -60
h11q130 0 246.5 44t207.5 123zM1996 921h-511v101h204v778l-308 -70v110l410 106v-924h205v-101z" />
    <glyph glyph-name="uniE1CD" unicode="&#xe1cd;" 
d="M1631 1835q95 -72 172 -163.5t131 -197.5t83.5 -224t29.5 -247q0 -138 -36 -266.5t-100.5 -240.5t-155.5 -203t-203 -156t-239.5 -101t-264.5 -36h-21q-140 2 -271.5 41t-245.5 107.5t-208 163t-160 209t-103.5 247.5t-37.5 275q0 215 81 399t224 321l-283 285h795v-797
l-293 294q-102 -95 -159.5 -226t-57.5 -282q0 -150 56 -282t154 -231t229 -157t280 -60h12q145 0 273 54.5t223 150t149.5 223t54.5 273.5q0 95 -23 184.5t-66.5 166t-103 142.5t-133.5 116z" />
    <glyph glyph-name="uniE1CE" unicode="&#xe1ce;" 
d="M897 1131h-463l350 -275l-143 -492l384 274l380 -271l-138 489l349 275h-463l-128 418zM1264 1281h784l-610 -480l235 -801l-649 455l-649 -455l237 801l-612 480h786l239 767z" />
    <glyph glyph-name="uniE1CF" unicode="&#xe1cf;" 
d="M1264 1281h784l-610 -480l235 -801l-649 455l-649 -455l237 801l-612 480h786l239 767z" />
    <glyph glyph-name="uniE1D0" unicode="&#xe1d0;" 
d="M1661 2048q31 0 56 -11.5t46 -31t32 -47t11 -53.5v-1760q0 -28 -11 -54.5t-32 -46.5t-46 -32t-56 -12h-1274q-30 0 -56 12t-45.5 32t-31 46.5t-11.5 54.5v1760q0 26 11.5 53.5t31 47t45.5 31t56 11.5h1274zM729 390h-195v-194h195v194zM729 781h-195v-196h195v196z
M729 1174h-195v-198h195v198zM1123 390h-199v-194h199v194zM1123 781h-199v-196h199v196zM1123 1174h-199v-198h199v198zM1513 390h-194v-194h194v194zM1513 781h-194v-196h194v196zM1513 1174h-194v-198h194v198zM1611 1853h-1174v-391h1174v391z" />
    <glyph glyph-name="uniE1D1" unicode="&#xe1d1;" 
d="M1109 647l258 -169v-478l-347 237l-339 -237v478l258 169v673l-265 -145l176 481l173 392l175 -392l175 -481l-264 145v-673z" />
    <glyph glyph-name="uniE1D2" unicode="&#xe1d2;" 
d="M1024 1909q-123 0 -234.5 -30.5t-210.5 -88.5t-180.5 -139.5t-138.5 -181t-88.5 -211t-31.5 -234.5t31.5 -234.5t88.5 -210.5t138.5 -181.5t180.5 -139t210.5 -87.5t234.5 -31t234.5 31t211 87.5t181 139t139.5 181.5t88.5 210.5t30.5 234.5t-30.5 234.5t-88.5 211
t-139.5 181t-181 139.5t-211 88.5t-234.5 30.5zM1024 2048q143 0 273.5 -36.5t245 -102.5t208.5 -159.5t159 -207.5t101.5 -245t36.5 -273q0 -143 -36.5 -272.5t-101.5 -244.5t-159 -208.5t-208.5 -159t-245 -102.5t-273.5 -37q-142 0 -272 37t-244.5 102.5t-208 159
t-159.5 208.5t-103 245t-37 272t37 273t103 245t159.5 207.5t208 159.5t244.5 102.5t272 36.5zM1024 560q-97 0 -180.5 36t-147 100t-99.5 147.5t-36 180.5t36 181t99.5 147.5t147 99.5t180.5 36t181 -36t147.5 -99.5t99.5 -147.5t36 -181t-36 -180.5t-99.5 -147.5
t-147.5 -100t-181 -36z" />
    <glyph glyph-name="uniE1D3" unicode="&#xe1d3;" 
d="M454 1793v-1537h-454v1537h454zM364 1432h-273v-92h273v92zM364 1612h-273v-91h273v91zM2048 380l-427 -155l-525 1443l425 155zM994 1793v-1537h-450v1537h450zM904 1432h-270v-92h270v92zM904 1612h-270v-91h270v91z" />
    <glyph glyph-name="uniE1D4" unicode="&#xe1d4;" 
d="M1699 2048q28 0 54.5 -14t47 -37.5t31 -52t10.5 -58.5v-1757q0 -61 -41.5 -95t-101.5 -34h-1493v2048h1493zM511 51v1946h-101v-1946h101zM1686 647l-84 118q-26 36 -59 56.5t-68 20.5q-13 0 -19 -1l-27 -6l-96 -68q-12 -7 -30 -7q-27 0 -43 20l-264 377q-11 19 -11 32
q0 30 21 45l95 67l16 22q15 24 15 57q0 27 -9.5 54t-27.5 52l-88 118q-24 34 -60 53.5t-71 19.5q-12 0 -30 -2.5t-24 -5.5l-36 -26q-79 -57 -114 -136.5t-35 -171.5q0 -75 21 -151.5t57 -143.5q2 0 2 -2q4 -11 30.5 -69t102.5 -161q38 -56 72.5 -100.5t62.5 -77t45.5 -50
t17.5 -18.5q84 -95 184 -147t204 -52q59 0 110.5 15t100.5 51l53 48q14 15 17 32.5t3 32.5q0 27 -7.5 53t-26.5 52z" />
    <glyph glyph-name="uniE1D5" unicode="&#xe1d5;" 
d="M747 1023q0 -39 -15 -72.5t-40.5 -59t-59 -39.5t-71.5 -14q-40 0 -73.5 14t-59.5 39.5t-41 59t-15 72.5t15 73.5t41 59t59.5 39.5t73.5 15q38 0 71.5 -15t59 -39.5t40.5 -59t15 -73.5zM1677 1023q0 -39 -15.5 -72.5t-40.5 -59t-58 -39.5t-75 -14q-37 0 -71 14t-59.5 39.5
t-40 59t-14.5 72.5t14.5 73.5t40 59t59.5 39.5t71 15q42 0 75 -15t58 -39.5t40.5 -59t15.5 -73.5zM1956 1677q39 0 65.5 -27.5t26.5 -67.5v-1117q0 -40 -26.5 -67.5t-65.5 -27.5h-1863q-38 0 -65.5 27.5t-27.5 67.5v1117q0 40 27.5 67.5t65.5 27.5h1863zM1488 650
q79 0 147 29.5t118.5 81t80 120.5t29.5 146q0 76 -29.5 145t-80 120.5t-118.5 80t-147 28.5q-75 0 -143.5 -27.5t-119 -77t-79.5 -116.5t-29 -145q0 -59 17 -105t46 -90q9 -10 9 -21q0 -6 -2 -11t-5 -9t-5 -8h-292q-1 2 -2 7q-1 4 -2 7t-1 9q0 12 5 22l7 15q19 40 30 72.5
t11 75.5q0 79 -29.5 150.5t-80.5 126t-118.5 88t-143.5 33.5q-78 0 -145.5 -29.5t-119 -80.5t-81 -119.5t-29.5 -144.5t29.5 -144.5t81 -119.5t119 -80t145.5 -29h927z" />
    <glyph glyph-name="uniE1D6" unicode="&#xe1d6;" 
d="M1340 1364l-80 -542q0 -61 -36 -101q-21 -21 -52.5 -31t-60.5 -10h-172q-30 0 -62 10t-51 31q-19 20 -28.5 46.5t-9.5 54.5l-80 542l80 541q0 30 9.5 55.5t28.5 45.5t51 31t62 11h172q29 0 60.5 -11t52.5 -31q36 -40 36 -101zM1606 1395q31 -2 52 -26t21 -54v-7l-79 -590
q-10 -72 -41 -133t-79 -104t-110 -68t-132 -25h-117v-194h206q17 0 33.5 -8.5t27.5 -22.5t18.5 -31t7.5 -35t-7.5 -35.5t-18.5 -31t-27.5 -22t-33.5 -8.5h-606q-17 0 -33.5 8.5t-27 22t-18 31t-7.5 35.5t7.5 35t18 31t27 22.5t33.5 8.5h206v194h-115q-68 0 -130.5 25
t-110.5 68t-79.5 104t-41.5 133l-81 590v8q0 29 20 53t52 26h7q30 0 52.5 -20.5t28.5 -51.5l82 -589q16 -84 72 -134t129 -50h430q37 0 68.5 13t58 38.5t45 59.5t26.5 73l79 589q6 31 28.5 51.5t52.5 20.5h6z" />
    <glyph glyph-name="uniE1D7" unicode="&#xe1d7;" 
d="M1616 1053v-122h404q-4 -31 -8.5 -62t-7.5 -63h-388v-121h366q-8 -50 -15 -83t-10 -42h-956v927h956l15 -126h-849v-183h925q0 -8 -0.5 -24t-3 -35t-3.5 -36.5t-3 -29.5h-422zM1494 685v368h-371v-368h371zM785 685h-342q-17 0 -30 4.5t-23.5 12.5t-16.5 20t-6 25
q0 11 6 22t16.5 20.5t23.5 13t30 3.5h342q15 0 28.5 -3.5t24 -13t16.5 -20.5t6 -22q0 -13 -6 -25t-16.5 -20t-24 -12.5t-28.5 -4.5zM602 1300h-529q-14 0 -28 5.5t-24 13.5t-15.5 19.5t-5.5 22.5q0 16 5.5 26t15.5 19.5t24 14.5t28 5h529q15 0 29.5 -5t24 -14.5t16.5 -19.5
t7 -26q0 -11 -7 -22.5t-16.5 -19.5t-24 -13.5t-29.5 -5.5zM679 993h-420q-16 0 -29 3.5t-24 11.5t-17 22t-6 23q0 13 6 25t17 19.5t24 13t29 5.5h420q16 0 28.5 -5.5t24 -13t16 -19.5t4.5 -25q0 -9 -4.5 -23t-16 -22t-24 -11.5t-28.5 -3.5z" />
    <glyph glyph-name="uniE1D8" unicode="&#xe1d8;" 
d="M639 1980l192 -193v-570h-572l-192 192h442l-509 503l136 136l503 -510v442zM1409 1538l504 510l135 -136l-509 -503h442l-193 -192h-570v570l191 193v-442zM639 509l-503 -509l-136 136l509 503h-442l192 192h572v-572l-192 -191v441zM1409 68l-191 191v572h570
l193 -192h-442l509 -503l-135 -136l-504 509v-441z" />
    <glyph glyph-name="uniE1D9" unicode="&#xe1d9;" 
d="M187 1304l-187 185v559h559l186 -187h-427l492 -493l-130 -130l-493 493v-427zM1861 744l187 -186v-558h-559l-186 186h427l-492 493l130 130l493 -492v427zM745 186l-186 -186h-559v558l187 186v-427l493 492l130 -130l-492 -493h427zM1303 1861l186 187h559v-559
l-187 -185v427l-493 -493l-130 130l492 493h-427z" />
    <glyph glyph-name="uniE1DA" unicode="&#xe1da;" 
d="M854 471h-792q-27 0 -44.5 17.5t-17.5 38.5v1075q0 26 17.5 43.5t44.5 17.5h648q22 0 52 10.5t47 30.5l153 173q8 8 21.5 16t26 14t26 8t28.5 2h407q11 0 25.5 -2t27 -8t24.5 -14t20 -16l95 -94q18 -18 30 -47t12 -54v-359h-338q-18 0 -32 -7.5t-27 -20t-20.5 -27.5
t-7.5 -30v-341h-341q-15 0 -29.5 -8t-27 -20t-20.5 -28t-8 -31v-339zM2048 725v-170h-429v-425h-167v425h-427v170h427v426h167v-426h429z" />
    <glyph glyph-name="uniE1DB" unicode="&#xe1db;" 
d="M221 1228v-136h-134v136h134zM425 1228v-136h-135v136h135zM627 1228v-136h-136v136h136zM221 1024v-135h-134v135h134zM425 1024v-135h-135v135h135zM627 1024v-135h-136v135h136zM830 1024v-135h-136v135h136zM221 821v-135h-134v135h134zM425 821v-135h-135v135h135z
M627 821v-135h-136v135h136zM830 821v-135h-136v135h136zM221 618v-135h-134v135h134zM425 618v-135h-135v135h135zM627 618v-135h-136v135h136zM694 1211l120 -119h-120v119zM898 1038l68 -66v-557q0 -14 -6 -24.5t-15.5 -20t-21.5 -16.5t-25 -7h-765l-38 68h803v623z
M607 1324l30 -29h-637l87 269h759zM1129 1431h506q56 0 107 -19t96.5 -52t84 -78t66.5 -99.5t43.5 -117t15.5 -126.5t-17 -124t-47 -110.5t-73 -91.5t-95.5 -70t-113 -44.5t-128.5 -15.5v203q60 0 109 18.5t83.5 51.5t54 80t19.5 103q0 57 -22.5 109.5t-61.5 92t-90.5 63.5
t-109.5 24h-427l263 -272h-256l-373 368l373 376h256z" />
    <glyph glyph-name="uniE1DD" unicode="&#xe1dd;" 
d="M1661 1521q16 -15 25 -38t9 -42v-918q0 -18 -13 -31.5t-34 -13.5h-1258q-21 0 -34.5 13.5t-13.5 31.5v855q0 20 13.5 34t34.5 14h515q19 0 43 9t38 25l119 136q8 5 17 11.5t20 11t22.5 7t21.5 2.5h322q9 0 21 -2.5t22.5 -7t20 -11t15.5 -11.5zM1020 1305
q-59 0 -111.5 -21t-96.5 -58.5t-75.5 -90.5t-42.5 -113v-3h119q7 37 25.5 67t46.5 51.5t61.5 33t73.5 11.5q43 0 79 -14t65 -40l-111 -109h304v300l-113 -111q-45 46 -102 71.5t-122 25.5zM1019 596q57 0 110.5 21.5t97.5 61t74.5 90.5t42.5 113v2h-120q-7 -37 -25.5 -67
t-46 -51.5t-61 -34t-72.5 -12.5q-44 0 -80.5 14.5t-64.5 41.5l111 109h-304v-300l113 111q45 -47 102.5 -73t122.5 -26zM1782 401l266 -257q-67 -77 -144 -144l-352 342h96q41 0 74 16.5t60 42.5zM390 1560q-25 0 -48 -6l-342 350q67 77 144 144l477 -488h-231z" />
    <glyph glyph-name="uniE1DE" unicode="&#xe1de;" 
d="M1861 1817q39 18 70 18q28 0 51 -14.5t38 -37t21.5 -50.5t6.5 -57q0 -173 -19.5 -324.5t-55 -281.5t-84 -241t-105 -203.5t-120 -167.5t-125.5 -139q-230 -213 -515 -317q-286 104 -512 317q-96 91 -189 218t-164 292t-115 376t-44 471q0 30 7.5 57.5t23.5 49.5t39.5 36
t51.5 14q31 0 65 -16q77 -37 142.5 -51t121.5 -14q72 0 131 21.5t108 54.5t90 72t79.5 72t78 54.5t86.5 21.5q48 0 87.5 -21.5t78 -54.5t80 -72t91.5 -72t109 -54.5t131 -21.5q56 0 119.5 14t140.5 51zM1024 249q33 0 60 13.5t49 35t32.5 53.5t10.5 63q0 36 -10.5 65.5
t-32.5 53t-49 36.5t-60 13t-60 -13t-49 -36.5t-32 -53t-10 -65.5q0 -31 10 -63t32 -53.5t49 -35t60 -13.5zM1124 774l52 766h-303l52 -766h199z" />
    <glyph glyph-name="uniE1DF" unicode="&#xe1df;" 
d="M1998 1731q22 -22 36 -56.5t14 -65.5v-1384q0 -28 -20 -48.5t-52 -20.5h-1904q-31 0 -51.5 20.5t-20.5 48.5v1290q0 31 20.5 50.5t51.5 19.5h778q15 0 31.5 4t35 11.5t35 18t22.5 23.5l180 200q10 10 23 18.5t30 15.5t35 11t29 4h494q14 0 32 -4t34 -11t29.5 -15.5
t24.5 -18.5zM1022 1407q-87 0 -167 -32t-146 -90t-112.5 -136.5t-65.5 -175.5v0h178q12 55 40.5 100.5t70.5 77.5t93.5 50.5t108.5 18.5q63 0 118 -22.5t100 -59.5l-170 -165h463v454l-172 -167q-69 68 -155 107.5t-184 39.5zM1021 334q86 0 166.5 32.5t146.5 90t112 138
t65 173.5v3h-179q-12 -59 -40 -104t-69.5 -77t-93.5 -50.5t-108 -18.5q-63 0 -118.5 22.5t-100.5 58.5l169 169h-462v-457l172 170q70 -71 156 -110.5t184 -39.5z" />
    <glyph glyph-name="uniE1E0" unicode="&#xe1e0;" 
d="M746 1303q-77 0 -144.5 30t-118.5 80t-80 117.5t-29 144.5q0 78 29 145.5t80 118.5t118.5 80t144.5 29q76 0 145 -29t119.5 -80t79 -118.5t28.5 -145.5q0 -77 -28.5 -144.5t-79 -117.5t-119.5 -80t-145 -30zM1444 838q87 0 162 -32.5t132.5 -89.5t90.5 -134t33 -163
q0 -87 -33 -162.5t-90.5 -132.5t-132.5 -90.5t-162 -33.5q-86 0 -163 33.5t-134.5 90.5t-89.5 132.5t-32 162.5q0 86 32 163t89.5 134t134.5 89.5t163 32.5zM1118 419q0 -68 26 -127t70 -103t102.5 -70t127.5 -26q54 0 102.5 17.5t92.5 48.5l-456 453q-28 -39 -46.5 -88.5
t-18.5 -104.5zM1768 419q0 67 -25 126.5t-69 103.5t-103.5 70t-126.5 26q-56 0 -105 -18t-89 -47l453 -456q32 43 48.5 92.5t16.5 102.5zM1301 1006q-99 -26 -183.5 -78.5t-146.5 -131t-96.5 -175t-34.5 -202.5q0 -18 1 -34.5t3 -34.5l-22 -33q-14 -19 -33 -28t-43 -9t-44 9
t-31 28l-468 655q-13 18 -15 45t10 52q10 19 33.5 33.5t49.5 14.5h930q27 0 48 -14.5t34 -33.5q8 -16 10 -32t-2 -31z" />
    <glyph glyph-name="uniE1E1" unicode="&#xe1e1;" 
d="M1970 1537q15 0 29.5 -6t25.5 -17t17 -26t6 -31v-867q0 -16 -6 -31t-17 -25.5t-25.5 -17t-29.5 -6.5h-1893q-16 0 -30.5 6.5t-25 17t-16 25.5t-5.5 31v867q0 16 5.5 31t16 26t25 17t30.5 6h1893zM1890 669v709h-1733v-709h1733zM314 905v237h316v-237h-316zM788 905v237
h317v-237h-317zM1262 825v396h471v-396h-471z" />
    <glyph glyph-name="uniE1E2" unicode="&#xe1e2;" 
d="M927 1273q-80 0 -150 30t-123.5 83t-83.5 124t-30 151q0 81 30 151t83.5 123t123.5 83t150 30q81 0 151.5 -30t123 -83t83 -123t30.5 -151q0 -80 -30.5 -151t-83 -124t-123 -83t-151.5 -30zM1508 387h194v-194h-194v-193h-193v193h-193v194h193v193h193v-193zM1122 580
h-195v-387q-23 0 -44 10.5t-34 29.5l-485 679q-16 22 -17.5 49t10.5 51q12 25 35.5 38.5t50.5 13.5h969q27 0 50 -13.5t36 -38.5q12 -24 10.5 -51t-18.5 -49l-97 -138h-271v-194z" />
    <glyph glyph-name="uniE1E3" unicode="&#xe1e3;" 
d="M727 1496h-254l141 -314l-117 -52l-147 327l-174 -174v765zM1868 574q0 -126 -40.5 -231t-112 -181t-170 -119t-215.5 -43q-64 0 -118 15.5t-101 42t-92 63.5t-88 78q-54 77 -114 158q-26 33 -55.5 73.5t-63 82.5t-70 86t-71.5 84l-4 3q-15 11 -26 28.5t-12 38.5l-1 11
q0 14 6 30.5t17.5 29.5t27 21t32.5 10h9q14 0 31 -6q17 -3 39 -15.5t49.5 -31t55.5 -38.5t57 -43.5t54.5 -42.5t46.5 -35v1092q0 24 4 48.5t13.5 44.5t24.5 32t40 12q26 0 41 -12t25.5 -32t15.5 -44.5t5 -48.5v-708q3 -16 10 -30q6 -9 14 -17t20 -8q20 0 30 17.5t10 37.5
v336q0 24 4.5 47.5t14.5 40.5t27 28.5t38 11.5q24 0 41 -11.5t27.5 -28.5t15 -40.5t4.5 -47.5v-336q0 -20 10.5 -37.5t29.5 -17.5q11 0 19 8t13 17q7 14 13 30v251q0 25 4.5 48t12.5 40t25 29t41 12q25 0 40.5 -12t26 -29t14.5 -40t4 -48v-299q0 -16 14 -27.5t31 -11.5
q9 0 16 6.5t14 14.5q4 9 9 18v215q0 20 5.5 43t15 41t26 31t39.5 13q24 0 41 -12t26 -29t13 -40t4 -47z" />
    <glyph glyph-name="uniE1E4" unicode="&#xe1e4;" 
d="M373 1301v280h280v-280h-280zM746 1301v280h280v-280h-280zM1120 1301v280h279v-280h-279zM373 928v280h280v-280h-280zM746 928v280h280v-280h-280zM1120 928v280h279v-280h-279zM1582 1301v280h185l48 -46v-234h-233zM1815 1208v-237l-48 -43h-185v280h233zM1954 1952
q19 0 37 -6.5t30 -19t19.5 -30t7.5 -36.5v-1213q0 -21 -7.5 -36.5t-19.5 -27.5t-30 -20.5t-37 -8.5h-834v-186q0 -36 16.5 -55t30.5 -28q16 -8 46 -10h280q26 -1 46 -11q16 -9 31.5 -28.5t15.5 -53.5q0 -36 -15.5 -55.5t-31.5 -27.5q-20 -9 -46 -10h-233l-185 93h-99
l-184 -93h-233q-27 1 -47 10q-16 8 -31 27.5t-15 55.5q0 34 15 53.5t31 28.5q20 10 47 11h281q29 2 45 10q14 9 31 28t17 55v186h-839q-19 0 -37 8.5t-30 20.5t-19.5 27.5t-7.5 36.5v1213q0 19 7.5 36.5t19.5 30t30 19t37 6.5h1860zM1861 741v1025h-1674v-1025h1674z" />
    <glyph glyph-name="uniE1E5" unicode="&#xe1e5;" 
d="M1941 1776h-215v-1503h215v1503zM1968 1883q34 0 57 -23.5t23 -57.5v-1556q0 -33 -23 -57t-57 -24h-269q-33 0 -56.5 24t-23.5 57v1556q0 34 23.5 57.5t56.5 23.5h269zM1400 1347h-214v-1074h214v1074zM1427 1454q33 0 56.5 -24t23.5 -57v-1127q0 -33 -23.5 -57
t-56.5 -24h-268q-34 0 -57.5 24t-23.5 57v1127q0 33 23.5 57t57.5 24h268zM862 917h-215v-644h215v644zM889 1024q33 0 56.5 -23.5t23.5 -56.5v-698q0 -33 -23.5 -57t-56.5 -24h-269q-34 0 -57.5 24t-23.5 57v698q0 33 23.5 56.5t57.5 23.5h269zM322 487h-214v-214h214v214z
M349 595q34 0 57.5 -23.5t23.5 -57.5v-268q0 -33 -23.5 -57t-56.5 -24h-269q-33 0 -57 24t-24 57v268q0 34 24 57.5t57 23.5h268z" />
    <glyph glyph-name="uniE1E6" unicode="&#xe1e6;" 
d="M1941 1776h-215v-1503h215v1503zM1968 1883q34 0 57 -23.5t23 -57.5v-1556q0 -33 -23 -57t-57 -24h-269q-33 0 -56.5 24t-23.5 57v1556q0 34 23.5 57.5t56.5 23.5h269zM1400 1347h-214v-1074h214v1074zM1427 1454q33 0 56.5 -24t23.5 -57v-1127q0 -33 -23.5 -57
t-56.5 -24h-268q-34 0 -57.5 24t-23.5 57v1127q0 33 23.5 57t57.5 24h268zM862 917h-215v-644h215v644zM889 1024q33 0 56.5 -23.5t23.5 -56.5v-698q0 -33 -23.5 -57t-56.5 -24h-269q-34 0 -57.5 24t-23.5 57v698q0 33 23.5 56.5t57.5 23.5h269zM349 595q34 0 57.5 -23.5
t23.5 -57.5v-268q0 -33 -23.5 -57t-56.5 -24h-269q-33 0 -57 24t-24 57v268q0 34 24 57.5t57 23.5h268z" />
    <glyph glyph-name="uniE1E7" unicode="&#xe1e7;" 
d="M1941 1776h-215v-1503h215v1503zM1968 1883q34 0 57 -23.5t23 -57.5v-1556q0 -33 -23 -57t-57 -24h-269q-33 0 -56.5 24t-23.5 57v1556q0 34 23.5 57.5t56.5 23.5h269zM1400 1347h-214v-1074h214v1074zM1427 1454q33 0 56.5 -24t23.5 -57v-1127q0 -33 -23.5 -57
t-56.5 -24h-268q-34 0 -57.5 24t-23.5 57v1127q0 33 23.5 57t57.5 24h268zM889 1024q33 0 56.5 -23.5t23.5 -56.5v-698q0 -33 -23.5 -57t-56.5 -24h-269q-34 0 -57.5 24t-23.5 57v698q0 33 23.5 56.5t57.5 23.5h269zM349 595q34 0 57.5 -23.5t23.5 -57.5v-268
q0 -33 -23.5 -57t-56.5 -24h-269q-33 0 -57 24t-24 57v268q0 34 24 57.5t57 23.5h268z" />
    <glyph glyph-name="uniE1E8" unicode="&#xe1e8;" 
d="M1941 1776h-215v-1503h215v1503zM1968 1883q34 0 57 -23.5t23 -57.5v-1556q0 -33 -23 -57t-57 -24h-269q-33 0 -56.5 24t-23.5 57v1556q0 34 23.5 57.5t56.5 23.5h269zM1427 1454q33 0 56.5 -24t23.5 -57v-1127q0 -33 -23.5 -57t-56.5 -24h-268q-34 0 -57.5 24t-23.5 57
v1127q0 33 23.5 57t57.5 24h268zM889 1024q33 0 56.5 -23.5t23.5 -56.5v-698q0 -33 -23.5 -57t-56.5 -24h-269q-34 0 -57.5 24t-23.5 57v698q0 33 23.5 56.5t57.5 23.5h269zM349 595q34 0 57.5 -23.5t23.5 -57.5v-268q0 -33 -23.5 -57t-56.5 -24h-269q-33 0 -57 24t-24 57
v268q0 34 24 57.5t57 23.5h268z" />
    </font>
</defs>
</svg>
