<?xml version="1.0" encoding="utf-8"?>
<!-- Generator: Adobe Illustrator 16.0.0, SVG Export Plug-In . SVG Version: 6.00 Build 0)  -->
<!DOCTYPE svg PUBLIC "-//W3C//DTD SVG 1.1//EN" "http://www.w3.org/Graphics/SVG/1.1/DTD/svg11.dtd">
<svg version="1.1" xmlns="http://www.w3.org/2000/svg" xmlns:xlink="http://www.w3.org/1999/xlink" x="0px" y="0px"
	 width="120px" height="42px" viewBox="0 0 120 42" enable-background="new 0 0 120 42" xml:space="preserve">
<g>
	<path fill="#ACB2AA" d="M3.408,0.437l113.354,0.202c1.584,0,3-0.234,3,3.16l-0.139,37.328H0.547V3.66
		C0.547,1.986,0.709,0.437,3.408,0.437L3.408,0.437z"/>
	<path fill="#FFFFFF" d="M34.522,19.536c0.005,7.528-6.096,13.636-13.626,13.642c-7.53,0.004-13.638-6.096-13.643-13.625
		c0-0.005,0-0.011,0-0.017C7.249,12.006,13.35,5.899,20.879,5.894C28.41,5.89,34.518,11.99,34.522,19.519
		C34.522,19.525,34.522,19.53,34.522,19.536L34.522,19.536z"/>
	<path d="M27.634,18.014c-0.392-0.852-0.964-1.277-1.72-1.277c-1.406,0-2.11,0.928-2.11,2.783s0.704,2.783,2.11,2.783
		c0.912,0,1.55-0.451,1.914-1.355l1.954,1.016c-0.909,1.618-2.274,2.429-4.092,2.429c-1.403,0-2.526-0.431-3.371-1.291
		c-0.843-0.863-1.266-2.052-1.266-3.564c0-1.488,0.429-2.668,1.287-3.544c0.857-0.874,1.948-1.311,3.273-1.311
		c1.923,0,3.3,0.758,4.131,2.274L27.634,18.014L27.634,18.014z M18.644,18.014c-0.391-0.852-0.976-1.277-1.755-1.277
		c-1.379,0-2.068,0.928-2.068,2.783s0.689,2.783,2.068,2.783c0.91,0,1.561-0.451,1.95-1.355l1.911,1.016
		c-0.911,1.618-2.277,2.429-4.099,2.429c-1.405,0-2.532-0.431-3.377-1.291c-0.846-0.863-1.269-2.052-1.269-3.564
		c0-1.488,0.436-2.668,1.307-3.544c0.873-0.874,1.958-1.311,3.26-1.311c1.926,0,3.305,0.758,4.139,2.274L18.644,18.014
		L18.644,18.014z M11.917,10.465c-2.556,2.582-3.834,5.607-3.834,9.075c0,3.468,1.266,6.466,3.795,8.997
		c2.53,2.527,5.542,3.794,9.037,3.794s6.532-1.276,9.114-3.833c2.452-2.374,3.678-5.357,3.678-8.958
		c0-3.572-1.246-6.604-3.737-9.094c-2.49-2.489-5.508-3.735-9.055-3.735S14.368,7.962,11.917,10.465L11.917,10.465z M31.971,8.432
		c3.024,3.022,4.536,6.725,4.536,11.104c0,4.38-1.485,8.042-4.458,10.989c-3.153,3.101-6.88,4.65-11.181,4.65
		c-4.249,0-7.912-1.537-10.987-4.613c-3.076-3.076-4.613-6.752-4.613-11.026c0-4.274,1.537-7.977,4.613-11.104
		c2.998-3.025,6.66-4.537,10.987-4.537C25.248,3.895,28.948,5.407,31.971,8.432L31.971,8.432z"/>
	<path fill="#FFFFFF" d="M63.359,4.439c5.932,0,10.74,4.808,10.74,10.738c0,5.93-4.81,10.738-10.74,10.738
		c-5.931,0-10.738-4.808-10.738-10.738C52.621,9.247,57.429,4.439,63.359,4.439L63.359,4.439z"/>
	<path d="M66.469,12.07c0-0.414-0.336-0.749-0.75-0.749h-4.742c-0.414,0-0.75,0.334-0.75,0.749v4.742h1.322v5.618h3.596v-5.618
		h1.324V12.07L66.469,12.07z"/>
	<path d="M63.348,7.453c0.896,0,1.621,0.727,1.621,1.623c0,0.895-0.725,1.621-1.621,1.621c-0.896,0-1.623-0.726-1.623-1.621
		C61.725,8.18,62.451,7.453,63.348,7.453L63.348,7.453z"/>
	<path d="M63.361,5.433c2.633,0,4.867,0.928,6.705,2.783c1.858,1.835,2.787,4.078,2.787,6.725c0,2.667-0.91,4.88-2.729,6.638
		c-1.916,1.894-4.17,2.841-6.765,2.841c-2.594,0-4.827-0.938-6.705-2.813c-1.877-1.875-2.816-4.096-2.816-6.667
		c0-2.57,0.949-4.812,2.845-6.725C58.505,6.361,60.73,5.433,63.361,5.433L63.361,5.433z M63.332,3.347
		c-3.211,0-5.931,1.12-8.156,3.362c-2.283,2.318-3.424,5.064-3.424,8.232s1.141,5.895,3.424,8.174
		c2.284,2.281,5.004,3.421,8.156,3.421c3.193,0,5.961-1.149,8.303-3.45c2.207-2.184,3.309-4.898,3.309-8.145s-1.12-5.99-3.366-8.232
		C69.332,4.467,66.584,3.347,63.332,3.347L63.332,3.347z"/>
	<path d="M2.247,1.015h115.507c0.68,0,1.23,0.552,1.23,1.231c0,0,0,15.783,0,27.206H36.428c-3.025,5.471-8.855,9.187-15.546,9.187
		c-6.694,0-12.521-3.713-15.546-9.187h-4.32c0-11.423,0-27.206,0-27.206C1.016,1.567,1.568,1.015,2.247,1.015L2.247,1.015z
		 M117.754,0H2.247C1.008,0,0,1.008,0,2.247v39.246C0,41.773,0.228,42,0.508,42h118.984c0.279,0,0.508-0.227,0.508-0.508V2.247
		C120,1.008,118.992,0,117.754,0L117.754,0z"/>
	<path fill="#FFFFFF" d="M59.896,38.236c0.143,0,0.278-0.014,0.409-0.043c0.129-0.027,0.246-0.073,0.343-0.139
		c0.101-0.064,0.179-0.152,0.238-0.265c0.059-0.11,0.088-0.253,0.088-0.427c0-0.34-0.098-0.582-0.289-0.727
		c-0.19-0.146-0.444-0.219-0.761-0.219h-1.59v1.816h1.561V38.236L59.896,38.236z M59.811,35.426c0.259,0,0.474-0.063,0.64-0.186
		c0.168-0.123,0.252-0.323,0.252-0.602c0-0.154-0.029-0.279-0.084-0.38c-0.057-0.099-0.131-0.176-0.223-0.229
		c-0.094-0.057-0.201-0.094-0.32-0.116c-0.122-0.021-0.247-0.032-0.376-0.032h-1.365v1.545H59.811L59.811,35.426z M59.997,32.748
		c0.316,0,0.603,0.027,0.864,0.083c0.261,0.056,0.482,0.146,0.668,0.272c0.187,0.127,0.33,0.295,0.435,0.506
		c0.103,0.211,0.152,0.469,0.152,0.779c0,0.334-0.076,0.61-0.229,0.834c-0.15,0.223-0.375,0.403-0.674,0.547
		c0.41,0.117,0.715,0.321,0.918,0.617c0.201,0.293,0.303,0.647,0.303,1.063c0,0.334-0.063,0.623-0.195,0.867
		c-0.129,0.244-0.305,0.443-0.524,0.598c-0.219,0.154-0.471,0.27-0.752,0.344c-0.282,0.074-0.572,0.111-0.869,0.111h-3.217v-6.621
		H59.997L59.997,32.748L59.997,32.748z"/>
	<polygon fill="#FFFFFF" points="62.691,32.748 64.324,32.748 65.875,35.361 67.416,32.748 69.039,32.748 66.582,36.828 
		66.582,39.369 65.121,39.369 65.121,36.791 	"/>
	<polygon fill="#FFFFFF" points="85.934,32.748 88.699,37.189 88.715,37.189 88.715,32.748 90.082,32.748 90.082,39.369 
		88.625,39.369 85.869,34.936 85.852,34.936 85.852,39.369 84.484,39.369 84.484,32.748 	"/>
	<path fill="#FFFFFF" d="M94.117,38.143c0.209,0,0.414-0.033,0.611-0.102c0.196-0.068,0.375-0.182,0.528-0.338
		c0.154-0.158,0.279-0.363,0.371-0.616c0.093-0.253,0.14-0.562,0.14-0.927c0-0.334-0.031-0.635-0.097-0.903s-0.172-0.499-0.319-0.69
		c-0.148-0.19-0.347-0.338-0.59-0.438c-0.244-0.101-0.548-0.151-0.904-0.151h-1.039v4.168h1.299V38.143L94.117,38.143z
		 M94.219,32.748c0.428,0,0.824,0.066,1.193,0.203s0.686,0.341,0.957,0.611c0.268,0.271,0.479,0.612,0.631,1.021
		s0.229,0.887,0.229,1.438c0,0.482-0.063,0.929-0.186,1.336c-0.125,0.408-0.313,0.761-0.563,1.058
		c-0.252,0.297-0.564,0.53-0.939,0.7c-0.373,0.171-0.814,0.255-1.322,0.255h-2.861v-6.621L94.219,32.748L94.219,32.748
		L94.219,32.748z"/>
	<path fill="#FFFFFF" d="M102.494,14.98c0.004,5.846-4.732,10.586-10.578,10.592c-5.846,0.003-10.588-4.73-10.592-10.577
		c0-0.005,0-0.011,0-0.015C81.32,9.135,86.055,4.394,91.902,4.389c5.846-0.004,10.588,4.73,10.592,10.576
		C102.494,14.971,102.494,14.975,102.494,14.98L102.494,14.98z"/>
	<path d="M91.773,5.471c2.631,0,4.865,0.928,6.705,2.785c1.856,1.835,2.785,4.076,2.785,6.725c0,2.667-0.91,4.879-2.729,6.638
		c-1.916,1.895-4.17,2.841-6.763,2.841c-2.596,0-4.83-0.938-6.707-2.813c-1.877-1.874-2.813-4.095-2.813-6.666
		c0-2.571,0.947-4.812,2.845-6.725C86.916,6.399,89.141,5.471,91.773,5.471L91.773,5.471z M91.744,3.386
		c-3.215,0-5.932,1.12-8.158,3.361c-2.283,2.319-3.424,5.063-3.424,8.233c0,3.169,1.141,5.894,3.424,8.174
		c2.283,2.281,5.002,3.422,8.158,3.422c3.191,0,5.959-1.151,8.301-3.45c2.205-2.185,3.309-4.899,3.309-8.146
		c0-3.248-1.123-5.991-3.367-8.233C97.742,4.505,94.994,3.386,91.744,3.386L91.744,3.386z"/>
	<path d="M96.141,15.959h-8.432v1.996h8.432V15.959L96.141,15.959z M96.141,12.232h-8.432v1.996h8.432V12.232L96.141,12.232z"/>
</g>
</svg>
